<svg width="45" height="45" viewBox="0 0 45 45" fill="none" xmlns="http://www.w3.org/2000/svg">
<g clip-path="url(#clip0)">
<path d="M44.5115 36.346L35.2569 27.0916C34.9418 26.7765 34.523 26.6031 34.0774 26.6031C33.7692 26.6031 33.4748 26.6878 33.2176 26.8433L28.0185 21.6442C27.752 21.3778 27.32 21.3778 27.0536 21.6442C26.7872 21.9106 26.7872 22.3427 27.0536 22.6091L32.217 27.7725L30.3147 29.6747L20.844 20.2039L22.7462 18.3017L24.0135 19.5688C24.2798 19.8353 24.7119 19.8352 24.9784 19.5688C25.2448 19.3023 25.2448 18.8704 24.9783 18.604L23.7111 17.3369L27.0088 14.0391L27.2698 14.3001C27.5938 14.6242 28.0248 14.8027 28.4834 14.8027C28.9418 14.8027 29.3727 14.6242 29.697 14.3001L30.9125 13.0845C31.2365 12.7604 31.4151 12.3294 31.4151 11.871C31.4151 11.4126 31.2365 10.9816 30.9125 10.6575L21.5858 1.33074C21.2617 1.0066 20.8307 0.828003 20.3722 0.828003C19.9138 0.828003 19.4828 1.00651 19.1588 1.33065L17.9432 2.54618C17.619 2.87032 17.4404 3.30125 17.4404 3.75977C17.4404 4.21812 17.619 4.64914 17.9431 4.97328L18.204 5.23422L7.7765 15.6617L7.51555 15.4008C6.84644 14.7318 5.75765 14.7318 5.08854 15.4009L3.87301 16.6164C3.54896 16.9406 3.37036 17.3716 3.37036 17.8299C3.37036 18.2884 3.54896 18.7194 3.87301 19.0434L13.1995 28.37C13.5237 28.6942 13.9547 28.8727 14.4131 28.8727C14.8716 28.8727 15.3025 28.6942 15.6266 28.37L16.8422 27.1545C16.8423 27.1545 16.8423 27.1545 16.8423 27.1545C17.5113 26.4854 17.5114 25.3967 16.8423 24.7275L16.5814 24.4665L19.879 21.1689L29.3856 30.6754C29.2301 30.9326 29.1454 31.227 29.1454 31.5352C29.1454 31.9808 29.3189 32.3996 29.6339 32.7147L38.8883 41.9692C39.2034 42.2843 39.6222 42.4577 40.0679 42.4577C40.5134 42.4577 40.9322 42.2842 41.2474 41.9692L44.5115 38.7051C44.8265 38.3901 45 37.9712 45 37.5256C45 37.08 44.8265 36.661 44.5115 36.346ZM18.908 3.51113L20.1237 2.29551C20.1901 2.22916 20.2784 2.19259 20.3722 2.19259C20.4661 2.19259 20.5544 2.22916 20.6208 2.2956L29.9474 11.6222C30.0138 11.6886 30.0505 11.7769 30.0505 11.8708C30.0505 11.9646 30.0139 12.053 29.9474 12.1194L28.7319 13.3349C28.599 13.4677 28.3674 13.4678 28.2346 13.335L18.9081 4.00841C18.8417 3.94197 18.805 3.85373 18.805 3.75977C18.805 3.66582 18.8417 3.57766 18.908 3.51113ZM15.8774 26.1895L14.6617 27.4051C14.529 27.5379 14.2973 27.5379 14.1645 27.4051L4.83787 18.0785C4.77151 18.0121 4.73486 17.9238 4.73486 17.8299C4.73486 17.7361 4.77143 17.6477 4.83796 17.5813L6.0534 16.3657C6.12195 16.2972 6.21196 16.2629 6.30204 16.2629C6.39213 16.2629 6.48213 16.2972 6.5506 16.3657L15.8772 25.6923C16.0143 25.8294 16.0143 26.0524 15.8774 26.1895ZM19.3965 19.7214C19.3964 19.7215 19.3964 19.7215 19.3963 19.7216L15.6163 23.5016L8.74136 16.6267L19.169 6.19926L26.0439 13.0742L22.2643 16.8536C22.264 16.8539 22.2638 16.8541 22.2635 16.8543L19.3965 19.7214ZM43.5464 37.74L40.2823 41.0041C40.2051 41.0815 40.1148 41.093 40.0679 41.093C40.0209 41.093 39.9306 41.0815 39.8533 41.0041L30.5989 31.7496C30.5216 31.6723 30.5099 31.582 30.5099 31.5351C30.5099 31.4881 30.5215 31.3979 30.5989 31.3205L30.7974 31.1221L33.8629 28.0564C33.9401 27.9791 34.0304 27.9676 34.0774 27.9676C34.1244 27.9676 34.2146 27.9791 34.2919 28.0564L43.5464 37.3109C43.6238 37.3882 43.6354 37.4785 43.6354 37.5254C43.6354 37.5724 43.6238 37.6627 43.5464 37.74Z" fill="white"/>
<path d="M25.9128 38.1241H24.8674V34.5286C24.8674 33.7265 24.215 33.074 23.4129 33.074H11.6517C11.2748 33.074 10.9694 33.3795 10.9694 33.7563C10.9694 34.1331 11.2748 34.4386 11.6517 34.4386H23.4129C23.4625 34.4386 23.5028 34.479 23.5028 34.5285V38.124H5.37372V34.5285C5.37372 34.4789 5.41406 34.4386 5.46363 34.4386H7.36471C7.74158 34.4386 8.047 34.1331 8.047 33.7563C8.047 33.3795 7.74158 33.074 7.36471 33.074H5.46363C4.66154 33.074 4.00913 33.7265 4.00913 34.5286V38.1241H2.96376C1.32952 38.1241 0 39.4536 0 41.0878V43.0305C0 43.6599 0.512051 44.172 1.14152 44.172H27.735C28.3645 44.172 28.8766 43.6599 28.8766 43.0305V41.0878C28.8766 39.4536 27.547 38.1241 25.9128 38.1241ZM27.5121 42.8074H1.36459V41.0878C1.36459 40.2061 2.08195 39.4886 2.96376 39.4886H25.9129C26.7946 39.4886 27.5121 40.206 27.5121 41.0878V42.8074Z" fill="white"/>
</g>
<defs>
<clipPath id="clip0">
<rect width="45" height="45" fill="white"/>
</clipPath>
</defs>
</svg>
