<svg width="45" height="45" viewBox="0 0 45 45" fill="none" xmlns="http://www.w3.org/2000/svg">
<g clip-path="url(#clip0)">
<path d="M44.3408 23.4389H43.0092L38.2166 11.6174H40.1678C41.3144 11.6174 42.2473 10.6845 42.2473 9.53789C42.2473 8.39074 41.3144 7.45752 40.1678 7.45752H32.2398L30.7182 5.93587C30.3256 5.54335 29.8033 5.32714 29.2475 5.32714H25.148C25.5711 4.76956 25.8228 4.07505 25.8228 3.32271C25.8227 1.49054 24.3322 0 22.5 0C20.6678 0 19.1773 1.49054 19.1773 3.32271C19.1773 4.07505 19.429 4.76947 19.8521 5.32714H15.7526C15.1968 5.32714 14.6744 5.54335 14.2819 5.93587L12.7603 7.45752H11.1015C10.7373 7.45752 10.4423 7.75257 10.4423 8.1167C10.4423 8.48083 10.7373 8.77588 11.1015 8.77588H13.0333C13.2081 8.77588 13.3757 8.70645 13.4995 8.58287L15.2142 6.86812C15.3577 6.72451 15.549 6.6455 15.7527 6.6455H29.2474C29.4511 6.6455 29.6423 6.72451 29.7859 6.86812L31.5006 8.58287C31.6243 8.70645 31.7919 8.77588 31.9668 8.77588H40.1679C40.5875 8.77588 40.929 9.11777 40.929 9.53789C40.929 9.95757 40.5875 10.299 40.1679 10.299H31.3788C31.1752 10.299 30.9843 10.2199 30.8404 10.0756L29.1256 8.36077C29.002 8.23711 28.8344 8.16768 28.6595 8.16768H16.3406C16.1658 8.16768 15.9982 8.23711 15.8745 8.36077L14.159 10.0763C14.0158 10.2199 13.8248 10.299 13.6213 10.299H4.83223C4.41255 10.299 4.07109 9.95757 4.07109 9.53789C4.07109 9.33425 4.15011 9.143 4.29363 8.99947C4.43786 8.85524 4.62911 8.77588 4.83223 8.77588H8.02529C8.38942 8.77588 8.68447 8.48083 8.68447 8.1167C8.68447 7.75257 8.38942 7.45752 8.02529 7.45752H4.83223C4.27711 7.45752 3.75478 7.67399 3.36146 8.06722C2.96895 8.45982 2.75273 8.98207 2.75273 9.53789C2.75273 10.6845 3.68561 11.6174 4.83223 11.6174H6.7834L1.99081 23.4389H0.65918C0.295049 23.4389 0 23.734 0 24.0981V26.9392C0 27.3033 0.295049 27.5984 0.65918 27.5984H0.887871V29.6028C0.887871 31.435 2.37841 32.9255 4.21058 32.9255H11.3133C13.1454 32.9255 14.636 31.435 14.636 29.6028V27.5984H14.8647C15.2288 27.5984 15.5239 27.3033 15.5239 26.9392V24.0981C15.5239 23.734 15.2288 23.4389 14.8647 23.4389H13.533L8.74046 11.6174H13.6214C14.1779 11.6174 14.7004 11.4006 15.0921 11.0077L16.6136 9.48604H20.0652V36.5789H14.5094C14.1453 36.5789 13.8502 36.874 13.8502 37.2381V40.13H11.8459C11.4818 40.13 11.1867 40.425 11.1867 40.7892V44.3408C11.1867 44.705 11.4818 45 11.8459 45H33.1541C33.5182 45 33.8133 44.705 33.8133 44.3408V40.7892C33.8133 40.425 33.5182 40.13 33.1541 40.13H31.1498V37.2381C31.1498 36.874 30.8547 36.5789 30.4906 36.5789H24.9346V16.3477C24.9346 15.9835 24.6395 15.6885 24.2754 15.6885C23.9113 15.6885 23.6162 15.9835 23.6162 16.3477V36.5789H21.3835V9.48604H23.6162V13.2715C23.6162 13.6356 23.9113 13.9307 24.2754 13.9307C24.6395 13.9307 24.9346 13.6356 24.9346 13.2715V9.48604H28.3863L29.9072 11.0071C30.2996 11.4007 30.8221 11.6174 31.3786 11.6174H36.2595L31.467 23.4389H30.1354C29.7713 23.4389 29.4762 23.734 29.4762 24.0981V26.9392C29.4762 27.3033 29.7713 27.5984 30.1354 27.5984H30.3641V29.6028C30.3641 31.435 31.8546 32.9255 33.6868 32.9255H40.7895C42.6217 32.9255 44.1122 31.435 44.1122 29.6028V27.5984H44.3409C44.705 27.5984 45.0001 27.3033 45.0001 26.9392V24.0981C45 23.734 44.705 23.4389 44.3408 23.4389ZM22.5 1.31836C23.6051 1.31836 24.5043 2.21748 24.5043 3.32271C24.5043 4.42793 23.6051 5.32696 22.5 5.32696C21.3949 5.32696 20.4957 4.42784 20.4957 3.32262C20.4957 2.21739 21.3949 1.31836 22.5 1.31836ZM13.3175 29.6027C13.3175 30.7078 12.4184 31.6071 11.3132 31.6071H4.21049C3.10535 31.6071 2.20614 30.7079 2.20614 29.6027V27.5983H13.3175V29.6027ZM14.2054 26.28H1.31836V24.7573H14.2054V26.28ZM3.41332 23.4389L7.76189 12.7126L12.1104 23.4389H3.41332ZM29.8314 40.13H20.3845C20.0203 40.13 19.7253 40.425 19.7253 40.7892C19.7253 41.1533 20.0203 41.4483 20.3845 41.4483H32.4949V43.6816H12.5051V41.4483H17.3082C17.6723 41.4483 17.9674 41.1533 17.9674 40.7892C17.9674 40.425 17.6723 40.13 17.3082 40.13H15.1685V37.8973H29.8313V40.13H29.8314ZM37.2381 12.7126L41.5867 23.4389H32.8895L37.2381 12.7126ZM30.7946 24.7573H43.6816V26.28H30.7946V24.7573ZM42.7938 29.6027C42.7938 30.7078 41.8946 31.6071 40.7894 31.6071H33.6867C32.5816 31.6071 31.6824 30.7079 31.6824 29.6027V27.5983H42.7938V29.6027Z" fill="white"/>
</g>
<defs>
<clipPath id="clip0">
<rect width="45" height="45" fill="white"/>
</clipPath>
</defs>
</svg>
