<svg width="45" height="45" viewBox="0 0 45 45" fill="none" xmlns="http://www.w3.org/2000/svg">
<g clip-path="url(#clip0)">
<path d="M44.857 25.4682C44.6302 25.1822 44.2149 25.1344 43.9289 25.3609L42.6333 26.3884L32.1618 12.6397L38.1481 8.79758C38.4551 8.60053 38.5442 8.19202 38.3472 7.88502C38.1502 7.57801 37.7417 7.48889 37.4347 7.68594L30.8461 11.9148C30.5265 12.1199 30.4469 12.5682 30.6773 12.8708L31.8764 14.4451L31.0238 15.0978L27.6387 13.9794C27.5725 13.9578 27.5012 13.9461 27.4314 13.9461H19.682C19.3789 13.9461 19.1147 14.1524 19.0413 14.4464L18.6052 16.1906L17.5044 15.7272C17.3993 15.6829 17.2843 15.6667 17.1714 15.6799L14.1095 16.0385L13.0691 15.4345L14.0587 13.7207C14.2385 13.409 14.1283 12.9982 13.817 12.8185L0.990794 5.4131C0.674652 5.23064 0.270796 5.33892 0.0885998 5.6548C-0.0937725 5.97068 0.0144204 6.37462 0.330298 6.55699L10.3822 12.3605L1.70692 27.3866L0.990794 26.9732C0.674652 26.7907 0.270796 26.899 0.0885998 27.2149C-0.0937725 27.5308 0.0144204 27.9347 0.330298 28.1171L3.82051 30.1322C4.13243 30.3122 4.54306 30.2019 4.7227 29.8905L5.22772 29.0159L6.65251 29.7758C6.18775 30.6767 6.23354 31.8014 6.86731 32.6773C7.40916 33.426 8.258 33.8241 9.11845 33.8241C9.40559 33.8241 9.69395 33.7792 9.97274 33.6886C9.9745 34.2784 10.162 34.8453 10.5185 35.3187C11.0598 36.0378 11.8963 36.4188 12.7417 36.4188C13.0242 36.4188 13.3077 36.3761 13.5815 36.2894C13.5889 36.8406 13.7591 37.3949 14.1061 37.8744C14.5405 38.4747 15.1826 38.8699 15.9141 38.9873C16.0628 39.0112 16.2116 39.023 16.3594 39.023C16.6462 39.023 16.9289 38.9782 17.1994 38.8914C17.2073 39.457 17.3872 40.0055 17.7256 40.4731C18.16 41.0734 18.8021 41.4687 19.5336 41.586C19.6823 41.6098 19.8311 41.6217 19.9789 41.6216C20.558 41.6216 21.1208 41.4405 21.599 41.0944L23.1399 39.9794C23.4733 39.7382 23.7423 39.4335 23.9365 39.0855L26.6473 40.5631C27.0604 40.7882 27.5134 40.9027 27.9711 40.9027C28.2341 40.9027 28.499 40.8648 28.7583 40.7884C29.4691 40.5791 30.0558 40.1056 30.4104 39.4549C30.6868 38.9478 30.7957 38.3804 30.7314 37.8182C30.8972 37.8487 31.0641 37.8639 31.2303 37.8639C32.2136 37.8638 33.1679 37.3404 33.6707 36.4179C33.9536 35.8987 34.0521 35.3281 33.9899 34.781C34.1562 34.8117 34.3236 34.8268 34.4903 34.8268C35.4738 34.8267 36.428 34.3033 36.9307 33.3808C37.207 32.8741 37.3158 32.307 37.2518 31.7452C37.4166 31.7758 37.5836 31.7915 37.7514 31.7915C38.0146 31.7915 38.2793 31.7536 38.5387 31.6773C39.2494 31.4679 39.8362 30.9944 40.1908 30.3438C40.5455 29.6932 40.6256 28.9435 40.4163 28.2327C40.366 28.0618 40.3 27.8984 40.2204 27.7434L41.3789 26.9211L41.9909 27.7246C42.2117 28.0144 42.6408 28.0686 42.9268 27.8419L44.75 26.396C45.0357 26.1694 45.0837 25.754 44.857 25.4682ZM3.9091 28.6581L2.8509 28.0471L11.5262 13.021L12.5844 13.632L3.9091 28.6581ZM9.96632 32.2283C9.31743 32.698 8.40715 32.5521 7.93747 31.903C7.46787 31.2539 7.61385 30.3436 8.26292 29.8739L12.9351 26.4934C13.1946 26.3057 13.4932 26.2148 13.7887 26.2148C14.2236 26.2148 14.652 26.4116 14.9392 26.7856C15.4316 27.4268 15.2929 28.3739 14.6389 28.8475L9.96632 32.2283ZM13.5857 34.827C12.9489 35.2878 12.0462 35.152 11.5737 34.5243C11.0841 33.8742 11.2726 32.9136 11.9207 32.4447L15.4129 29.918C15.54 29.8332 15.6575 29.744 15.7999 29.6836C16.0025 29.5976 16.2243 29.5586 16.4441 29.5708C16.8647 29.5942 17.2586 29.8057 17.5149 30.1394C18.0072 30.7805 17.8686 31.7277 17.2145 32.2014L13.5857 34.827ZM17.2051 37.4256C16.8908 37.6532 16.5066 37.7447 16.1233 37.6831C15.7401 37.6216 15.4037 37.4146 15.1762 37.1001C14.7068 36.4513 14.8524 35.5417 15.5007 35.0718C15.5007 35.0718 17.989 33.2713 17.9893 33.2712L18.0863 33.2009C18.7278 32.7369 19.6082 32.8652 20.0905 33.4931C20.5829 34.1345 20.4441 35.0819 19.7897 35.5553L17.2051 37.4256ZM22.9515 37.9416C22.8945 38.3335 22.6862 38.6771 22.3654 38.9092L20.8246 40.0242C20.1826 40.4888 19.2595 40.3401 18.7956 39.6988C18.3296 39.0549 18.4815 38.1362 19.121 37.6699L20.5641 36.6258L20.662 36.5549C21.2942 36.0975 22.1912 36.2287 22.666 36.8471C22.9073 37.1611 23.0086 37.5498 22.9515 37.9416ZM39.0309 29.7115C38.6522 30.4064 37.7557 30.6714 37.0596 30.2919L29.4237 26.1298C29.1032 25.9553 28.7022 26.0734 28.5276 26.3937C28.3531 26.7139 28.4711 27.1151 28.7914 27.2897L35.1903 30.7774C35.8939 31.1609 36.1541 32.0452 35.7708 32.7486C35.3874 33.452 34.5031 33.7126 33.7995 33.3291L27.3069 29.7902C26.9866 29.6156 26.5855 29.7337 26.4109 30.054C26.2364 30.3743 26.3544 30.7754 26.6748 30.9501L31.9312 33.8152C32.6339 34.199 32.8938 35.0827 32.5107 35.7858C32.1321 36.4806 31.2356 36.7457 30.5394 36.3662L25.0363 33.3666C24.7157 33.1921 24.3148 33.3102 24.1402 33.6304C23.9657 33.9507 24.0837 34.3519 24.404 34.5265L28.67 36.8517C29.3649 37.2304 29.6298 38.1269 29.2504 38.823C28.8718 39.518 27.9753 39.7827 27.2793 39.4033L24.287 37.7724C24.2975 37.1492 24.1 36.5457 23.7137 36.0426C23.1948 35.3669 22.4346 34.9942 21.6506 34.9562C21.663 34.8976 21.6744 34.8384 21.6831 34.7786C21.792 34.0305 21.5986 33.2884 21.1381 32.6888C20.6192 32.0132 19.859 31.6405 19.075 31.6025C19.0874 31.5438 19.0987 31.4847 19.1074 31.4248C19.2164 30.6766 19.023 29.9346 18.5625 29.335C18.0435 28.6593 17.2834 28.2867 16.4994 28.2487C16.5118 28.19 16.5231 28.1309 16.5318 28.071C16.6408 27.3229 16.4474 26.5808 15.9869 25.9813C15.0662 24.7823 13.3853 24.5374 12.1608 25.4236L7.55154 28.7582L5.88848 27.8712L12.4085 16.5782L13.6362 17.291C13.7597 17.3628 13.9032 17.3923 14.0446 17.3758L17.1521 17.0119L18.2808 17.4872L17.6321 20.0823C17.6191 20.1346 17.6124 20.1884 17.6124 20.2425V25.8784C17.6124 27.7965 19.1729 29.3569 21.0909 29.3569C23.0089 29.3569 24.5693 27.7964 24.5693 25.8784V20.4319L24.6894 20.2398L38.4503 27.7403C39.1452 28.119 39.4104 29.0152 39.0309 29.7115ZM39.346 26.744C39.2617 26.6853 39.1742 26.6303 39.0827 26.5804L25.3909 19.1175L25.8989 18.3048C26.0922 17.9954 25.9981 17.5879 25.6888 17.3947C25.3797 17.2015 24.9719 17.2953 24.7786 17.6047L23.3489 19.8924C23.2834 19.9974 23.2485 20.1186 23.2485 20.2425V25.8784C23.2485 27.068 22.2807 28.036 21.091 28.036C19.9012 28.036 18.9334 27.0681 18.9334 25.8784V20.3238L20.1975 15.267H27.3251L30.9408 16.4615C31.1463 16.5295 31.3776 16.4904 31.5494 16.3589L32.6766 15.496L40.5778 25.8697L39.346 26.744Z" fill="white"/>
<path d="M44.8952 3.68223C44.6982 3.37523 44.2897 3.28611 43.9827 3.48315L40.2823 5.85812C39.9753 6.05517 39.8862 6.46369 40.0833 6.77069C40.2094 6.9673 40.4222 7.07452 40.6396 7.07452C40.7618 7.07452 40.8853 7.04069 40.9957 6.96985L44.6961 4.59488C45.003 4.39765 45.0921 3.98914 44.8952 3.68223Z" fill="white"/>
</g>
<defs>
<clipPath id="clip0">
<rect width="45" height="45" fill="white"/>
</clipPath>
</defs>
</svg>
