<svg width="115" height="54" viewBox="0 0 115 54" fill="none" xmlns="http://www.w3.org/2000/svg">
<g clip-path="url(#clip0)">
<path d="M2.29041 0H16.6876V3.14884H6.48009V7.25283H15.4284V10.3597H6.48009V17.8566H2.29041V0Z" fill="#262424"/>
<path d="M28.8418 4.90189C29.8941 5.32334 30.7893 6.0014 31.4225 6.8568C32.0468 7.67675 32.4521 8.61178 32.6077 9.59104C32.7281 10.4614 32.7717 11.3387 32.7381 12.2151H21.8639C21.9251 13.5393 22.4456 14.4691 23.4254 15.0044C24.0757 15.3476 24.8229 15.5196 25.5795 15.5004C26.1883 15.5406 26.7966 15.4174 27.3252 15.1468C27.8537 14.8763 28.278 14.4709 28.5425 13.9837H32.5277C32.4211 14.7674 31.9381 15.5642 31.0788 16.3742C29.7435 17.6599 27.8669 18.3028 25.4491 18.3028C23.5353 18.326 21.6737 17.7498 20.1928 16.6759C18.6737 15.5913 17.9132 13.8271 17.9113 11.3833C17.9113 9.0916 18.5977 7.33525 19.9705 6.1142C21.3434 4.89314 23.1212 4.28087 25.3039 4.27737C26.52 4.25982 27.7262 4.47275 28.8418 4.90189ZM23.0017 7.88804C22.4165 8.4541 22.052 9.17154 21.9617 9.93479H28.6877C28.6166 9.019 28.2699 8.32101 27.6477 7.83556C27.0012 7.35268 26.1759 7.09848 25.3306 7.12182C24.3291 7.12882 23.5528 7.38423 23.0017 7.88804Z" fill="#262424"/>
<path d="M42.6315 4.84659C43.3315 5.19462 43.9206 5.6938 44.3441 6.29768V0H48.2968V17.8566H44.5041V16.0197C44.0402 16.7219 43.3852 17.31 42.5989 17.7306C41.7765 18.1076 40.8575 18.2885 39.9322 18.2554C39.0913 18.2592 38.2603 18.0937 37.5022 17.7714C36.744 17.4491 36.0785 16.9785 35.5559 16.395C34.3707 15.1459 33.7781 13.5426 33.7781 11.5851C33.7781 9.32844 34.3648 7.55285 35.5381 6.25832C36.0951 5.62965 36.8118 5.12635 37.63 4.78938C38.4481 4.45241 39.3446 4.2913 40.2463 4.31916C41.0795 4.30898 41.9015 4.49073 42.6315 4.84659ZM43.5915 14.2669C44.1604 13.5374 44.4449 12.5954 44.4449 11.4408C44.4449 9.82176 43.9856 8.66719 43.0612 7.96919C42.5123 7.5591 41.8147 7.33827 41.0967 7.3473C39.9569 7.3473 39.1194 7.72953 38.5841 8.494C38.0218 9.35707 37.7446 10.3427 37.7841 11.3385C37.7841 12.563 38.0557 13.54 38.5989 14.2695C39.1421 14.999 39.9658 15.3646 41.07 15.3663C41.5613 15.3886 42.0508 15.2992 42.4921 15.1068C42.9334 14.9144 43.3119 14.6253 43.5915 14.2669Z" fill="#262424"/>
<path d="M64.297 16.2399C63.0388 17.6184 61.1257 18.3068 58.5577 18.305C55.9898 18.3033 54.0767 17.6149 52.8184 16.2399C51.5433 14.8278 50.8737 13.0617 50.928 11.2543C50.8886 9.45679 51.5593 7.70358 52.8243 6.29747C54.0846 4.89798 55.9977 4.19824 58.5636 4.19824C61.1296 4.19824 63.0407 4.89798 64.297 6.29747C65.5617 7.70446 66.2304 9.459 66.1874 11.2569C66.2423 13.0636 65.5726 14.8291 64.297 16.2399ZM61.174 14.3296C61.7844 13.6107 62.0906 12.589 62.0926 11.2648C62.0946 9.9405 61.7884 8.92063 61.174 8.20514C60.8483 7.86868 60.4443 7.5986 59.9896 7.41343C59.5349 7.22826 59.0404 7.13239 58.5399 7.13239C58.0395 7.13239 57.545 7.22826 57.0903 7.41343C56.6356 7.5986 56.2316 7.86868 55.9058 8.20514C55.2895 8.91888 54.9814 9.93875 54.9814 11.2648C54.9814 12.5908 55.2895 13.6124 55.9058 14.3296C56.231 14.6669 56.6349 14.9377 57.0896 15.1234C57.5444 15.3091 58.0392 15.4052 58.5399 15.4052C59.0407 15.4052 59.5355 15.3091 59.9902 15.1234C60.445 14.9377 60.8489 14.6669 61.174 14.3296Z" fill="#262424"/>
<path d="M77.281 4.3246L77.6188 4.34297V7.88542C77.3699 7.86093 77.1506 7.84518 76.961 7.83818C76.7684 7.83818 76.6143 7.82506 76.4958 7.82506C74.9254 7.82506 73.8676 8.2764 73.3313 9.18431C73.037 9.69338 72.8898 10.4806 72.8898 11.5459V17.8568H68.946V4.63424H72.6735V6.93814C73.0889 6.26616 73.6208 5.65608 74.2498 5.13018C75.0582 4.56575 76.069 4.27793 77.0973 4.31935L77.281 4.3246Z" fill="#262424"/>
<path d="M92.3567 16.2399C91.0985 17.6184 89.1853 18.3068 86.6174 18.305C84.0495 18.3033 82.1403 17.6149 80.8899 16.2399C79.6149 14.8278 78.9452 13.0617 78.9995 11.2543C78.9585 9.45744 79.6271 7.70429 80.8899 6.29747C82.1522 4.89798 84.0653 4.19824 86.6293 4.19824C89.1932 4.19824 91.1064 4.89798 92.3686 6.29747C93.6332 7.70446 94.302 9.459 94.259 11.2569C94.3105 13.0649 93.6365 14.8305 92.3567 16.2399ZM89.2337 14.3296C89.8461 13.6107 90.1523 12.589 90.1523 11.2648C90.1523 9.9405 89.8461 8.92063 89.2337 8.20514C88.9083 7.86873 88.5045 7.59868 88.05 7.41353C87.5956 7.22838 87.1013 7.13251 86.6011 7.13251C86.1009 7.13251 85.6066 7.22838 85.1522 7.41353C84.6977 7.59868 84.2939 7.86873 83.9685 8.20514C83.3492 8.91888 83.044 9.93963 83.044 11.2648C83.044 12.5899 83.3403 13.6107 83.9685 14.3296C84.2934 14.6668 84.697 14.9376 85.1515 15.1233C85.606 15.3089 86.1006 15.4051 86.6011 15.4051C87.1016 15.4051 87.5962 15.3089 88.0507 15.1233C88.5052 14.9376 88.9088 14.6668 89.2337 14.3296Z" fill="#262424"/>
<path d="M106.241 4.63428H110.434L105.041 17.8568H100.926L95.5715 4.63428H99.9538L103.062 14.3878L106.241 4.63428Z" fill="#262424"/>
<path d="M110.372 20.7297C111.058 20.5922 111.67 20.2494 112.105 19.7588C112.515 19.1892 112.735 18.5291 112.742 17.8538H110.372V14.23H114.591V17.3788C114.586 17.9601 114.504 18.5388 114.345 19.1028C114.191 19.6808 113.875 20.2151 113.426 20.6562C112.952 21.1136 112.369 21.4721 111.72 21.7059C111.295 21.8887 110.84 22.01 110.372 22.0653V20.7297Z" fill="#262424"/>
<path d="M28.0299 19.9983C29.4281 20.3977 30.6383 21.1946 31.4729 22.2654C32.1647 23.133 32.6533 24.1144 32.9099 25.1519C33.1592 26.1232 33.2883 27.1157 33.2951 28.1118C33.2951 30.4892 32.7558 32.5009 31.6773 34.1471C30.2175 36.3722 27.9607 37.4848 24.9069 37.4848H16.1986V19.6099H24.9069C25.964 19.5999 27.0167 19.7308 28.0299 19.9983ZM20.2964 22.7141V34.3754H24.1928C26.1859 34.3754 27.5765 33.5059 28.3647 31.7671C28.8207 30.6762 29.0388 29.5187 29.0077 28.3558C29.0077 26.5347 28.6857 25.1352 28.0417 24.1574C27.3978 23.1795 26.1138 22.6914 24.1898 22.6931L20.2964 22.7141Z" fill="#262424"/>
<path d="M42.0745 29.447C42.6067 29.4069 43.1306 29.3055 43.6331 29.1452C44.1921 28.9353 44.4726 28.6073 44.4746 28.1612C44.4746 27.6207 44.2593 27.2463 43.8286 27.0381C43.233 26.8039 42.583 26.6986 41.9323 26.7311C40.999 26.7311 40.3353 26.9332 39.9471 27.3373C39.6449 27.691 39.4537 28.1092 39.393 28.5496H35.6093C35.6407 27.5225 36.0252 26.5283 36.7115 25.6999C37.7486 24.5348 39.5264 23.9523 42.0449 23.9523C43.5593 23.9264 45.0588 24.2215 46.4183 24.8129C47.6924 25.3867 48.3294 26.4704 48.3294 28.0641V34.1309C48.3294 34.5507 48.3294 35.0598 48.3561 35.6607C48.3479 35.98 48.4283 36.2963 48.5902 36.5817C48.739 36.757 48.9373 36.8945 49.165 36.9806V37.4923H44.925C44.8141 37.2493 44.7317 36.997 44.679 36.7392C44.6346 36.5056 44.5961 36.238 44.5694 35.952C44.0209 36.469 43.3888 36.9112 42.6938 37.264C41.8198 37.699 40.8311 37.9209 39.8286 37.9069C38.6008 37.9469 37.4 37.5812 36.4597 36.8809C35.5708 36.1986 35.1293 35.2277 35.1293 33.9761C35.1293 32.3492 35.8424 31.1718 37.2686 30.4441C38.0538 30.0479 39.2004 29.7645 40.7205 29.5965L42.0745 29.447ZM44.4598 31.0608C44.2216 31.1947 43.9684 31.3064 43.7042 31.394C43.3633 31.5004 43.0122 31.5795 42.6553 31.6302L41.7664 31.7771C41.1493 31.85 40.5491 32.0095 39.9886 32.2494C39.6934 32.3919 39.4498 32.6056 39.2862 32.8657C39.1226 33.1258 39.0456 33.4216 39.0641 33.7189C39.0641 34.3102 39.2518 34.7362 39.6271 34.9968C40.0186 35.266 40.5036 35.4061 40.999 35.393C41.8418 35.3951 42.6647 35.1659 43.3546 34.737C44.0756 34.3014 44.4489 33.5046 44.4746 32.3465L44.4598 31.0608Z" fill="#262424"/>
<path d="M63.7874 25.0256C64.7751 25.7411 65.264 26.9281 65.2541 28.5864V37.4924H61.254V29.4471C61.2898 28.9007 61.1886 28.3541 60.9577 27.8465C60.5755 27.1668 59.8525 26.8283 58.7799 26.8283C57.4663 26.8283 56.5646 27.3252 56.0747 28.3188C55.7976 28.9614 55.6687 29.6466 55.6954 30.334V37.4924H51.7754V24.2909H55.5562V26.2222C55.9339 25.666 56.4135 25.1694 56.9755 24.7527C57.8631 24.2007 58.9319 23.9239 60.0155 23.9655C61.5543 23.9568 62.8116 24.3101 63.7874 25.0256Z" fill="#262424"/>
<path d="M72.8985 19.4995H68.9399V22.6903H72.8985V19.4995Z" fill="#262424"/>
<path d="M72.8985 24.2671H68.9399V37.4896H72.8985V24.2671Z" fill="#262424"/>
<path d="M80.6647 37.4922H76.7625V19.6094H80.6647V37.4922Z" fill="#262424"/>
<path d="M96.9255 35.8732C95.6673 37.2517 93.7541 37.941 91.1862 37.941C88.6183 37.941 86.7042 37.2517 85.4439 35.8732C84.1711 34.4602 83.5026 32.6945 83.5565 30.8876C83.5148 29.0911 84.1824 27.3381 85.4439 25.9308C86.7062 24.5313 88.6203 23.8315 91.1862 23.8315C93.7522 23.8315 95.6653 24.5313 96.9255 25.9308C98.1893 27.3372 98.858 29.0906 98.8159 30.8876C98.8703 32.695 98.2006 34.4611 96.9255 35.8732ZM93.8025 33.9629C94.4129 33.244 94.7191 32.2223 94.7211 30.8981C94.723 29.5738 94.4169 28.5539 93.8025 27.8384C93.4763 27.5028 93.072 27.2334 92.6174 27.0487C92.1628 26.8641 91.6686 26.7685 91.1684 26.7685C90.6683 26.7685 90.1741 26.8641 89.7195 27.0487C89.2649 27.2334 88.8606 27.5028 88.5343 27.8384C87.918 28.5522 87.6099 29.5721 87.6099 30.8981C87.6099 32.2241 87.918 33.2457 88.5343 33.9629C88.8589 34.301 89.2626 34.5725 89.7175 34.7587C90.1723 34.9449 90.6674 35.0414 91.1684 35.0414C91.6695 35.0414 92.1646 34.9449 92.6194 34.7587C93.0742 34.5725 93.4779 34.301 93.8025 33.9629Z" fill="#262424"/>
<path d="M110.816 24.2671H115.009L109.616 37.4922H105.483L100.149 24.2671H104.532L107.643 34.0206L110.816 24.2671Z" fill="#262424"/>
<path d="M25.7781 42.2127H27.3485V43.3331C27.6331 42.9793 27.991 42.6765 28.4033 42.441C28.9742 42.1186 29.6405 41.9542 30.3174 41.9687C30.8401 41.964 31.3577 42.0599 31.8345 42.2498C32.3113 42.4396 32.7359 42.7188 33.0789 43.0681C33.8335 43.8029 34.2117 44.8525 34.2137 46.217C34.2137 48.0625 33.6675 49.3746 32.5752 50.153C31.8957 50.6499 31.0385 50.916 30.1574 50.9035C29.5186 50.9235 28.8873 50.7776 28.3411 50.4836C27.9752 50.2603 27.6521 49.9866 27.384 49.6728V53.9894H25.7781V42.2127ZM31.8167 48.841C32.3144 48.2847 32.5633 47.4546 32.5633 46.3508C32.5795 45.7585 32.4679 45.1689 32.2344 44.6137C32.0788 44.1898 31.7698 43.8231 31.3553 43.5703C30.9408 43.3175 30.4438 43.1926 29.9411 43.2151C28.827 43.2151 28.0635 43.7075 27.6507 44.6924C27.413 45.3426 27.3057 46.0247 27.3336 46.7077C27.3166 47.277 27.4284 47.8435 27.6625 48.3739C27.8294 48.7193 28.0951 49.0202 28.4333 49.2468C28.7716 49.4735 29.1708 49.6181 29.5915 49.6663C30.0122 49.7145 30.4398 49.6647 30.8321 49.5218C31.2244 49.3789 31.5679 49.1479 31.8285 48.8515L31.8167 48.841Z" fill="#76324D"/>
<path d="M41.1856 45.511C41.3384 45.5049 41.4869 45.4641 41.6166 45.3924C41.7464 45.3207 41.8531 45.2205 41.9263 45.1016C42.0072 44.9289 42.0436 44.7425 42.033 44.5558C42.0479 44.3501 42.0009 44.1445 41.8968 43.9601C41.7927 43.7757 41.6352 43.6191 41.4404 43.5062C40.9295 43.2619 40.3519 43.1483 39.7722 43.1782C38.9367 43.1782 38.3441 43.3794 37.9944 43.7817C37.7713 44.0771 37.6396 44.4191 37.6122 44.7736H36.1307C36.1603 43.724 36.5416 42.9963 37.2744 42.5904C38.041 42.1741 38.9266 41.9619 39.8256 41.979C40.7786 41.9421 41.7248 42.1382 42.5604 42.5458C42.8994 42.7288 43.1756 42.9902 43.3593 43.3018C43.5431 43.6134 43.6275 43.9635 43.6034 44.3144V49.1872C43.5967 49.3124 43.6317 49.4365 43.7041 49.5441C43.7594 49.5946 43.8275 49.6329 43.9027 49.6557C43.9778 49.6785 44.0581 49.6852 44.1367 49.6753C44.2167 49.6788 44.2968 49.6788 44.3767 49.6753C44.4656 49.6753 44.5634 49.6543 44.673 49.6386V50.6882C44.4855 50.7383 44.2944 50.7777 44.1012 50.8062C43.9232 50.8243 43.744 50.8322 43.5649 50.8299C43.3296 50.846 43.0939 50.8057 42.8822 50.7134C42.6706 50.6211 42.4908 50.48 42.3619 50.3051C42.2095 50.0624 42.1156 49.7943 42.0863 49.5179C41.7048 49.9348 41.223 50.271 40.6759 50.5019C40.0499 50.7854 39.3553 50.9295 38.6522 50.9217C38.2554 50.9352 37.8595 50.879 37.4873 50.7565C37.1151 50.6341 36.7739 50.4476 36.4833 50.208C36.2079 49.9799 35.9902 49.7027 35.8447 49.3947C35.6991 49.0867 35.6289 48.7548 35.6388 48.421C35.6171 48.0821 35.6802 47.7431 35.8236 47.4283C35.967 47.1135 36.1872 46.8306 36.4685 46.5999C37.0873 46.1495 37.8454 45.8751 38.6433 45.8127L41.1856 45.511ZM37.8078 49.3499C38.1497 49.5889 38.5753 49.7142 39.0107 49.7042C39.5799 49.7031 40.1409 49.5845 40.6493 49.3578C41.0627 49.202 41.4125 48.9381 41.6519 48.6014C41.8912 48.2647 42.0087 47.8712 41.9886 47.4737V46.3323C41.7537 46.4571 41.499 46.5499 41.233 46.6078C40.9345 46.6803 40.6305 46.7338 40.3233 46.7679L39.3544 46.8781C38.8984 46.914 38.4536 47.0234 38.0418 47.2008C37.8037 47.3144 37.6072 47.4859 37.4754 47.6951C37.3437 47.9043 37.2821 48.1425 37.2981 48.3816C37.2908 48.5683 37.3344 48.7537 37.4252 48.9222C37.516 49.0908 37.6513 49.2375 37.8196 49.3499H37.8078Z" fill="#76324D"/>
<path d="M46.2791 42.1733H47.805V43.6349C48.0242 43.2316 48.3372 42.8739 48.7235 42.5853C48.9448 42.3903 49.2073 42.2359 49.4962 42.1309C49.785 42.026 50.0944 41.9726 50.4065 41.9739C50.4578 41.9709 50.5093 41.9709 50.5606 41.9739L50.925 42.0054V43.5037C50.8379 43.4889 50.7498 43.4784 50.6613 43.4722C50.5813 43.4722 50.4954 43.4722 50.3976 43.4722C50.0483 43.4537 49.6988 43.5066 49.3762 43.6267C49.0535 43.7468 48.7664 43.931 48.5369 44.165C48.1087 44.6073 47.877 45.1726 47.885 45.7551V50.6437H46.2791V42.1733Z" fill="#76324D"/>
<path d="M52.6375 39.8115H54.2582V42.1732H55.7842V43.333H54.2582V48.8435C54.2424 48.9611 54.2663 49.0802 54.3269 49.1858C54.3876 49.2914 54.4823 49.3786 54.599 49.4365C54.7966 49.5057 55.0091 49.5353 55.2212 49.5231C55.3012 49.5231 55.3842 49.5231 55.4731 49.5231C55.5773 49.5196 55.6811 49.5109 55.7842 49.4968V50.6435C55.596 50.6915 55.4038 50.7257 55.2094 50.7459C54.9949 50.7676 54.7793 50.7782 54.5634 50.7774C53.8148 50.7774 53.3061 50.6077 53.0375 50.2683C52.7563 49.8773 52.6168 49.4195 52.6375 48.9563V43.333H51.3427V42.1732H52.6375V39.8115Z" fill="#76324D"/>
<path d="M57.3904 42.1736H58.9134V43.3728C59.2979 42.9282 59.7886 42.5644 60.3504 42.3074C60.8764 42.0881 61.452 41.9777 62.0334 41.9847C63.3904 41.9847 64.306 42.4028 64.7801 43.239C65.0774 43.8593 65.2121 44.5313 65.1742 45.2044V50.644H63.5416V45.2988C63.5609 44.8716 63.4729 44.4459 63.2838 44.0524C63.1462 43.7969 62.9239 43.5845 62.6464 43.4439C62.369 43.3032 62.0497 43.2409 61.7312 43.2652C61.4151 43.2578 61.0995 43.2923 60.7949 43.3676C60.3397 43.4931 59.9367 43.7351 59.6363 44.0629C59.3877 44.311 59.209 44.6078 59.1148 44.9289C59.0216 45.3478 58.9808 45.7746 58.9934 46.2015V50.644H57.3904V42.1736Z" fill="#76324D"/>
<path d="M73.4439 42.4071C74.0258 42.651 74.5238 43.0278 74.8869 43.4987C75.2179 43.95 75.4352 44.4593 75.5239 44.9917C75.6383 45.6073 75.6859 46.2312 75.6661 46.8548H68.7209C68.7084 47.5906 68.9459 48.3128 69.4023 48.9278C69.827 49.4526 70.4848 49.715 71.3757 49.715C71.7484 49.7293 72.1201 49.6707 72.4643 49.5432C72.8084 49.4158 73.1166 49.2227 73.3668 48.9776C73.6443 48.6906 73.8466 48.3528 73.9595 47.9884H75.5358C75.4722 48.3539 75.3315 48.7055 75.1209 49.0249C74.9168 49.3719 74.6517 49.6881 74.3358 49.9617C73.8383 50.3881 73.2165 50.6834 72.5402 50.8145C72.1139 50.9026 71.6771 50.9449 71.2394 50.9404C70.6753 50.9481 70.1157 50.8496 69.5978 50.6515C69.0799 50.4534 68.6153 50.1601 68.2349 49.7911C67.4132 49.0249 67.0023 47.9525 67.0023 46.574C67.0023 45.1955 67.4162 44.0926 68.2438 43.2651C68.6403 42.8492 69.1378 42.5181 69.6991 42.2963C70.2604 42.0746 70.871 41.968 71.4853 41.9846C72.1668 41.9857 72.8382 42.1305 73.4439 42.4071ZM74.0187 45.7265C73.9856 45.2114 73.8312 44.7082 73.5654 44.2491C73.1298 43.5643 72.4039 43.2231 71.3816 43.2231C71.0362 43.2176 70.6935 43.2777 70.3766 43.3995C70.0597 43.5212 69.776 43.7018 69.5446 43.929C69.04 44.4213 68.7593 45.0616 68.7564 45.7265H74.0187Z" fill="#76324D"/>
<path d="M77.7432 42.1733H79.2691V43.6349C79.4883 43.2316 79.8014 42.8739 80.1876 42.5853C80.6363 42.1922 81.2425 41.9724 81.8736 41.9739C81.9239 41.9709 81.9744 41.9709 82.0247 41.9739L82.3892 42.0054V43.5037C82.302 43.4888 82.214 43.4782 82.1255 43.4722C82.0455 43.4722 81.9595 43.4722 81.8647 43.4722C81.5149 43.4533 81.1648 43.506 80.8416 43.6261C80.5184 43.7463 80.2308 43.9306 80.001 44.165C79.5728 44.6073 79.3411 45.1726 79.3491 45.7551V50.6437H77.7432V42.1733Z" fill="#76324D"/>
<path d="M84.7417 47.9776C84.7571 48.3678 84.8991 48.7459 85.1506 49.0666C85.5624 49.5232 86.2795 49.7541 87.2988 49.7541C87.8567 49.7641 88.408 49.6456 88.8988 49.4103C89.1169 49.3103 89.2981 49.1571 89.4209 48.9688C89.5438 48.7804 89.6032 48.5649 89.5921 48.3476C89.5966 48.1773 89.547 48.0093 89.4491 47.8628C89.3511 47.7162 89.2087 47.5969 89.038 47.5184C88.5909 47.339 88.1229 47.2035 87.6425 47.1143L86.3476 46.8309C85.7057 46.7162 85.0879 46.5134 84.5165 46.23C84.1943 46.0741 83.9262 45.8435 83.7409 45.5629C83.5556 45.2823 83.4601 44.9623 83.4646 44.6372C83.4509 44.2685 83.5321 43.9018 83.702 43.5649C83.8719 43.228 84.1261 42.9298 84.4454 42.6928C85.1061 42.1995 85.9921 41.9502 87.1121 41.9502C88.5699 41.9502 89.6217 42.3246 90.2677 43.0733C90.6588 43.5083 90.8682 44.0497 90.8603 44.6057H89.3343C89.3051 44.2865 89.1689 43.9822 88.9432 43.7319C88.5679 43.3628 87.9141 43.1774 86.9817 43.1756C86.487 43.146 85.9941 43.2533 85.5713 43.4826C85.4211 43.5714 85.2984 43.6921 85.2145 43.8338C85.1306 43.9755 85.0883 44.1335 85.0913 44.2935C85.094 44.4774 85.1541 44.6572 85.2649 44.8128C85.3758 44.9684 85.5331 45.0938 85.7195 45.1751C86.0561 45.3361 86.4175 45.4527 86.7921 45.5215L87.8736 45.7498C89.0588 45.9965 89.8351 46.2379 90.244 46.4688C90.8682 46.8309 91.1803 47.4021 91.1803 48.1823C91.1824 48.55 91.0964 48.914 90.9278 49.2501C90.7592 49.5862 90.512 49.8868 90.2025 50.1319C89.5487 50.6795 88.5541 50.9533 87.2188 50.9533C85.7787 50.9533 84.7624 50.6672 84.1609 50.0952C83.5598 49.5168 83.2183 48.7636 83.2009 47.9776H84.7417Z" fill="#76324D"/>
<path d="M3.60306 35.2251C3.25216 34.5404 3.06454 33.7989 3.05195 33.0471C3.03018 32.371 3.16751 31.6982 3.45521 31.0717C3.74291 30.4451 4.17469 29.8784 4.72308 29.4076C5.83519 28.4454 7.32558 27.9644 9.19425 27.9644C10.972 27.9644 12.3548 28.4122 13.3424 29.3079C13.8214 29.7269 14.1996 30.2275 14.4543 30.7795C14.7089 31.3315 14.8346 31.9235 14.8239 32.5197C14.847 33.9149 14.2986 35.2703 13.2802 36.335C12.6876 36.9735 11.6802 37.7091 10.258 38.5418L14.9336 43.4908C15.2417 42.6668 15.4561 42.0545 15.5766 41.6539C15.698 41.2472 15.8195 40.6778 15.9469 39.9457H18.9277C18.7355 41.3781 18.3372 42.7829 17.7425 44.1258C17.1499 45.4588 16.8536 45.9958 16.8536 45.7369L21.4048 50.6439H17.3662L14.9662 48.0461C14.2066 48.82 13.329 49.4965 12.3587 50.0561C10.9191 50.8116 9.27027 51.1969 7.59719 51.1687C4.94234 51.1687 3.01244 50.5284 1.80748 49.2479C0.635568 48.055 -0.00679206 46.5256 5.41654e-05 44.9445C5.41654e-05 43.2231 0.585741 41.786 1.75711 40.6332C2.47416 39.9335 3.81344 39.0588 5.77494 38.0092C4.69049 36.9053 3.96653 35.9773 3.60306 35.2251ZM11.1469 47.9254C11.9858 47.4721 12.7125 46.8732 13.2832 46.1647L7.51126 39.9063C5.88161 40.8737 4.81789 41.6155 4.32011 42.1315C3.55266 42.9145 3.14457 43.9238 3.17639 44.9602C3.17639 46.1655 3.67023 47.0927 4.65789 47.7417C5.56483 48.3643 6.67784 48.7055 7.82534 48.7126C8.99532 48.7412 10.1494 48.4677 11.1469 47.9254ZM10.898 35.0676C11.5498 34.4285 11.9117 33.5986 11.9143 32.7375C11.9262 32.0987 11.6599 31.4803 11.1706 31.0109C10.9144 30.7683 10.6019 30.578 10.2545 30.4529C9.90713 30.3279 9.53325 30.2712 9.15869 30.2866C7.87472 30.2866 6.98582 30.6671 6.49199 31.4281C6.23985 31.8177 6.10897 32.2596 6.11273 32.7086C6.11908 33.3464 6.32415 33.9702 6.70533 34.5113C7.27866 35.2998 7.92589 36.0442 8.64017 36.7365C9.46174 36.2558 10.2192 35.6941 10.898 35.0624V35.0676Z" fill="#76324D"/>
</g>
<defs>
<clipPath id="clip0">
<rect width="115" height="54" fill="white"/>
</clipPath>
</defs>
</svg>
