<svg width="133" height="88" viewBox="0 0 133 88" fill="none" xmlns="http://www.w3.org/2000/svg">
<g clip-path="url(#clip0)">
<path d="M2.6488 0H19.2995V3.67365H7.49426V8.46164H17.8431V12.0863H7.49426V20.8326H2.6488V0Z" fill="white"/>
<path d="M33.3562 5.71855C34.5733 6.21024 35.6086 7.00131 36.3409 7.99927C37.0629 8.95588 37.5316 10.0468 37.7116 11.1892C37.8508 12.2046 37.9012 13.2282 37.8624 14.2506H25.2862C25.357 15.7956 25.9589 16.8803 27.0921 17.5048C27.8441 17.9052 28.7083 18.1059 29.5833 18.0834C30.2874 18.1304 30.991 17.9866 31.6023 17.671C32.2135 17.3553 32.7042 16.8824 33.0101 16.314H37.6191C37.4958 17.2283 36.9372 18.1579 35.9434 19.1029C34.3991 20.603 32.2288 21.353 29.4326 21.353C27.2191 21.38 25.0662 20.7078 23.3535 19.4549C21.5967 18.1896 20.7171 16.1313 20.7148 13.2801C20.7148 10.6065 21.5087 8.55746 23.0965 7.1329C24.6842 5.70834 26.7403 4.99402 29.2646 4.98994C30.671 4.96946 32.0661 5.21788 33.3562 5.71855ZM26.602 9.20239C25.9253 9.86279 25.5037 10.6998 25.3992 11.5903H33.178C33.0958 10.5218 32.6948 9.70752 31.9752 9.14116C31.2275 8.5778 30.2731 8.28123 29.2955 8.30847C28.1372 8.31663 27.2394 8.61461 26.602 9.20239Z" fill="white"/>
<path d="M49.3043 5.65436C50.1138 6.06039 50.7951 6.64277 51.2849 7.3473V0H55.8563V20.8326H51.47V18.6897C50.9334 19.5088 50.1759 20.195 49.2666 20.6857C48.3155 21.1255 47.2526 21.3365 46.1825 21.298C45.2099 21.3024 44.2489 21.1093 43.3721 20.7333C42.4952 20.3573 41.7256 19.8082 41.1211 19.1275C39.7504 17.6702 39.0651 15.7997 39.0651 13.516C39.0651 10.8832 39.7436 8.81165 41.1006 7.30138C41.7447 6.56793 42.5736 5.98074 43.5199 5.58761C44.4661 5.19447 45.5028 5.00651 46.5457 5.03902C47.5094 5.02714 48.46 5.23919 49.3043 5.65436ZM50.4145 16.6447C51.0725 15.7936 51.4015 14.6946 51.4015 13.3476C51.4015 11.4587 50.8703 10.1117 49.8011 9.29739C49.1664 8.81895 48.3596 8.56131 47.5292 8.57185C46.211 8.57185 45.2424 9.01779 44.6233 9.90967C43.973 10.9166 43.6524 12.0664 43.6981 13.2282C43.6981 14.6568 44.0122 15.7967 44.6404 16.6477C45.2687 17.4988 46.2213 17.9254 47.4984 17.9274C48.0665 17.9533 48.6327 17.8491 49.143 17.6246C49.6534 17.4001 50.0911 17.0628 50.4145 16.6447Z" fill="white"/>
<path d="M74.3609 18.9468C72.9057 20.5551 70.6931 21.3582 67.7232 21.3561C64.7534 21.3541 62.5408 20.551 61.0856 18.9468C59.6109 17.2994 58.8365 15.2389 58.8993 13.1302C58.8538 11.0332 59.6295 8.98776 61.0924 7.34729C62.55 5.71456 64.7625 4.89819 67.7301 4.89819C70.6977 4.89819 72.908 5.71456 74.3609 7.34729C75.8235 8.98878 76.5969 11.0357 76.5472 13.1333C76.6107 15.2411 75.8361 17.3008 74.3609 18.9468ZM70.7491 16.7182C71.455 15.8793 71.8091 14.6874 71.8114 13.1425C71.8137 11.5975 71.4596 10.4076 70.7491 9.57291C70.3724 9.18037 69.9051 8.86527 69.3792 8.64924C68.8534 8.43321 68.2815 8.32136 67.7027 8.32136C67.1239 8.32136 66.552 8.43321 66.0261 8.64924C65.5003 8.86527 65.033 9.18037 64.6563 9.57291C63.9435 10.4056 63.5871 11.5955 63.5871 13.1425C63.5871 14.6895 63.9435 15.8814 64.6563 16.7182C65.0323 17.1116 65.4994 17.4275 66.0254 17.6442C66.5513 17.8608 67.1235 17.973 67.7027 17.973C68.2818 17.973 68.8541 17.8608 69.38 17.6442C69.9059 17.4275 70.373 17.1116 70.7491 16.7182Z" fill="white"/>
<path d="M89.3771 5.04512L89.7677 5.06655V9.19941C89.4799 9.17084 89.2263 9.15247 89.007 9.1443C88.7843 9.1443 88.6061 9.129 88.469 9.129C86.6528 9.129 85.4294 9.65555 84.8092 10.7148C84.4688 11.3087 84.2986 12.2271 84.2986 13.47V20.8326H79.7375V5.40637H84.0484V8.09425C84.5289 7.31028 85.144 6.59852 85.8715 5.98496C86.8064 5.32647 87.9754 4.99067 89.1646 5.039L89.3771 5.04512Z" fill="white"/>
<path d="M106.813 18.9468C105.357 20.5551 103.145 21.3582 100.175 21.3561C97.205 21.3541 94.997 20.551 93.5509 18.9468C92.0763 17.2994 91.3018 15.2389 91.3646 13.1302C91.3171 11.0339 92.0904 8.98859 93.5509 7.34729C95.0107 5.71456 97.2233 4.89819 100.189 4.89819C103.154 4.89819 105.366 5.71456 106.826 7.34729C108.289 8.98878 109.062 11.0357 109.013 13.1333C109.072 15.2426 108.293 17.3025 106.813 18.9468ZM103.201 16.7182C103.909 15.8793 104.263 14.6874 104.263 13.1425C104.263 11.5975 103.909 10.4076 103.201 9.57291C102.824 9.18043 102.357 8.86537 101.832 8.64936C101.306 8.43335 100.735 8.32151 100.156 8.32151C99.5775 8.32151 99.0058 8.43335 98.4803 8.64936C97.9547 8.86537 97.4877 9.18043 97.1113 9.57291C96.3951 10.4056 96.0422 11.5965 96.0422 13.1425C96.0422 14.6885 96.3849 15.8793 97.1113 16.7182C97.4871 17.1115 97.9539 17.4274 98.4795 17.6441C99.0052 17.8607 99.5771 17.9729 100.156 17.9729C100.735 17.9729 101.307 17.8607 101.833 17.6441C102.358 17.4274 102.825 17.1115 103.201 16.7182Z" fill="white"/>
<path d="M122.87 5.40662H127.719L121.483 20.8329H116.723L110.531 5.40662H115.599L119.193 16.7857L122.87 5.40662Z" fill="white"/>
<path d="M127.647 24.1848C128.441 24.0245 129.149 23.6244 129.652 23.0521C130.126 22.3876 130.381 21.6175 130.389 20.8296H127.647V16.6018H132.527V20.2755C132.522 20.9536 132.426 21.6287 132.243 22.2868C132.065 22.9611 131.699 23.5845 131.18 24.0991C130.632 24.6327 129.958 25.0509 129.206 25.3237C128.715 25.5369 128.189 25.6785 127.647 25.7431V24.1848Z" fill="white"/>
<path d="M32.4172 23.331C34.0343 23.797 35.434 24.7268 36.3991 25.976C37.1993 26.9882 37.7644 28.1332 38.0611 29.3436C38.3494 30.4768 38.4988 31.6347 38.5066 32.7968C38.5066 35.5704 37.8829 37.9174 36.6356 39.838C34.9473 42.434 32.3373 43.732 28.8054 43.732H18.7341V22.8779H28.8054C30.028 22.8663 31.2455 23.019 32.4172 23.331ZM23.4734 26.4995V40.1043H27.9796C30.2846 40.1043 31.8929 39.09 32.8045 37.0613C33.3318 35.7886 33.5841 34.4382 33.5481 33.0815C33.5481 30.9569 33.1757 29.3242 32.4309 28.1833C31.6862 27.0424 30.2013 26.473 27.9761 26.4751L23.4734 26.4995Z" fill="white"/>
<path d="M48.66 34.3546C49.2755 34.3079 49.8814 34.1895 50.4625 34.0025C51.109 33.7576 51.4334 33.375 51.4357 32.8545C51.4357 32.2239 51.1867 31.7871 50.6887 31.5443C49.9999 31.271 49.2481 31.1482 48.4956 31.1861C47.4161 31.1861 46.6485 31.4218 46.1996 31.8933C45.8501 32.3059 45.629 32.7939 45.5588 33.3076H41.1828C41.2192 32.1093 41.6639 30.9495 42.4576 29.983C43.657 28.6237 45.713 27.9441 48.6258 27.9441C50.3772 27.9139 52.1114 28.2582 53.6837 28.9482C55.1572 29.6176 55.894 30.882 55.894 32.7413V39.8192C55.894 40.309 55.894 40.9029 55.9248 41.6039C55.9153 41.9765 56.0082 42.3455 56.1955 42.6785C56.3677 42.8829 56.5969 43.0434 56.8603 43.1438V43.7408H51.9566C51.8284 43.4574 51.7331 43.1629 51.6722 42.8622C51.6208 42.5897 51.5762 42.2774 51.5454 41.9437C50.911 42.547 50.18 43.0628 49.3762 43.4744C48.3654 43.982 47.2219 44.2408 46.0625 44.2245C44.6425 44.2712 43.2538 43.8445 42.1663 43.0275C41.1383 42.2315 40.6277 41.0988 40.6277 39.6385C40.6277 37.7405 41.4524 36.3669 43.1018 35.5179C44.0099 35.0557 45.3361 34.725 47.094 34.5291L48.66 34.3546ZM51.4186 36.2373C51.1432 36.3936 50.8503 36.5239 50.5448 36.6261C50.1505 36.7503 49.7445 36.8425 49.3317 36.9017L48.3037 37.0731C47.5899 37.1582 46.8959 37.3442 46.2476 37.6241C45.9062 37.7904 45.6245 38.0396 45.4353 38.3431C45.246 38.6465 45.157 38.9917 45.1784 39.3385C45.1784 40.0283 45.3955 40.5253 45.8295 40.8294C46.2822 41.1435 46.8432 41.3069 47.4161 41.2917C48.3909 41.2941 49.3426 41.0267 50.1404 40.5263C50.9743 40.0181 51.406 39.0885 51.4357 37.7374L51.4186 36.2373Z" fill="white"/>
<path d="M73.7716 29.1965C74.9138 30.0313 75.4792 31.416 75.4678 33.3508V43.7411H70.8417V34.3549C70.883 33.7175 70.766 33.0798 70.499 32.4875C70.0569 31.6946 69.2208 31.2997 67.9803 31.2997C66.4611 31.2997 65.4182 31.8793 64.8517 33.0385C64.5312 33.7882 64.382 34.5877 64.413 35.3897V43.7411H59.8794V28.3393H64.252V30.5925C64.6888 29.9436 65.2435 29.3642 65.8934 28.8781C66.9199 28.2341 68.156 27.9112 69.4093 27.9597C71.1889 27.9495 72.643 28.3618 73.7716 29.1965Z" fill="white"/>
<path d="M84.3088 22.7493H79.7306V26.4719H84.3088V22.7493Z" fill="white"/>
<path d="M84.3088 28.3119H79.7306V43.7381H84.3088V28.3119Z" fill="white"/>
<path d="M93.2904 43.7409H88.7773V22.8777H93.2904V43.7409Z" fill="white"/>
<path d="M112.097 41.852C110.641 43.4602 108.429 44.2644 105.459 44.2644C102.489 44.2644 100.275 43.4602 98.8178 41.852C97.3457 40.2035 96.5727 38.1435 96.635 36.0354C96.5868 33.9395 97.3588 31.8943 98.8178 30.2524C100.278 28.6197 102.491 27.8033 105.459 27.8033C108.427 27.8033 110.639 28.6197 112.097 30.2524C113.558 31.8932 114.331 33.9389 114.283 36.0354C114.346 38.144 113.571 40.2045 112.097 41.852ZM108.485 39.6233C109.191 38.7845 109.545 37.5926 109.547 36.0476C109.549 34.5027 109.195 33.3128 108.485 32.4781C108.107 32.0864 107.64 31.7722 107.114 31.5567C106.588 31.3413 106.017 31.2298 105.438 31.2298C104.86 31.2298 104.288 31.3413 103.763 31.5567C103.237 31.7722 102.769 32.0864 102.392 32.4781C101.679 33.3108 101.323 34.5006 101.323 36.0476C101.323 37.5946 101.679 38.7865 102.392 39.6233C102.767 40.0177 103.234 40.3345 103.76 40.5517C104.286 40.769 104.859 40.8815 105.438 40.8815C106.018 40.8815 106.59 40.769 107.116 40.5517C107.642 40.3345 108.109 40.0177 108.485 39.6233Z" fill="white"/>
<path d="M128.161 28.3119H133.01L126.774 43.7412H121.993L115.825 28.3119H120.893L124.491 39.691L128.161 28.3119Z" fill="white"/>
<path d="M29.8129 49.2483H31.6291V50.5555C31.9582 50.1426 32.3722 49.7894 32.849 49.5146C33.5092 49.1385 34.2799 48.9467 35.0627 48.9635C35.6672 48.9581 36.2658 49.07 36.8173 49.2915C37.3687 49.513 37.8597 49.8387 38.2564 50.2463C39.1291 51.1035 39.5666 52.328 39.5689 53.9199C39.5689 56.0731 38.9372 57.6038 37.6739 58.512C36.8881 59.0917 35.8966 59.4021 34.8776 59.3875C34.1389 59.4109 33.4087 59.2406 32.777 58.8977C32.3539 58.6372 31.9803 58.3178 31.6702 57.9517V62.9877H29.8129V49.2483ZM36.7966 56.9813C37.3723 56.3323 37.6602 55.3639 37.6602 54.076C37.6789 53.385 37.5498 52.6972 37.2798 52.0494C37.0998 51.5549 36.7425 51.1271 36.2631 50.8321C35.7836 50.5372 35.2088 50.3915 34.6275 50.4177C33.339 50.4177 32.456 50.9922 31.9786 52.1413C31.7037 52.8999 31.5797 53.6956 31.6119 54.4924C31.5922 55.1566 31.7215 55.8175 31.9923 56.4364C32.1852 56.8393 32.4925 57.1903 32.8837 57.4548C33.275 57.7192 33.7367 57.8879 34.2232 57.9441C34.7097 58.0004 35.2043 57.9423 35.658 57.7756C36.1117 57.6089 36.5089 57.3393 36.8103 56.9935L36.7966 56.9813Z" fill="white"/>
<path d="M47.6319 53.0963C47.8087 53.0893 47.9804 53.0416 48.1304 52.958C48.2805 52.8743 48.4039 52.7575 48.4886 52.6187C48.5821 52.4173 48.6243 52.1998 48.612 51.982C48.6292 51.742 48.5749 51.5021 48.4545 51.287C48.3341 51.0719 48.1519 50.8891 47.9266 50.7574C47.3357 50.4724 46.6677 50.3399 45.9974 50.3748C45.031 50.3748 44.3457 50.6095 43.9413 51.0789C43.6833 51.4235 43.5309 51.8225 43.4992 52.2361H41.7859C41.8201 51.0115 42.261 50.1625 43.1086 49.689C43.9951 49.2034 45.0193 48.9557 46.059 48.9757C47.1613 48.9326 48.2556 49.1614 49.222 49.637C49.614 49.8505 49.9334 50.1554 50.1459 50.519C50.3585 50.8825 50.456 51.2909 50.4282 51.7003V57.3853C50.4204 57.5313 50.4609 57.6761 50.5447 57.8016C50.6087 57.8606 50.6873 57.9052 50.7743 57.9318C50.8612 57.9584 50.954 57.9663 51.045 57.9547C51.1375 57.9588 51.2301 57.9588 51.3226 57.9547C51.4254 57.9547 51.5385 57.9302 51.6653 57.9119V59.1364C51.4483 59.1949 51.2274 59.2409 51.0039 59.2742C50.798 59.2952 50.5908 59.3044 50.3836 59.3017C50.1116 59.3205 49.8389 59.2736 49.5941 59.1658C49.3493 59.0581 49.1415 58.8936 48.9924 58.6894C48.8161 58.4063 48.7076 58.0936 48.6737 57.771C48.2324 58.2575 47.6752 58.6497 47.0425 58.919C46.3185 59.2498 45.5152 59.4179 44.702 59.4089C44.2431 59.4246 43.7853 59.3591 43.3548 59.2162C42.9243 59.0733 42.5297 58.8558 42.1936 58.5762C41.8751 58.3101 41.6234 57.9867 41.455 57.6273C41.2867 57.268 41.2056 56.8808 41.217 56.4914C41.1919 56.096 41.2648 55.7005 41.4307 55.3332C41.5966 54.9659 41.8512 54.6359 42.1765 54.3668C42.8922 53.8413 43.7689 53.5212 44.6918 53.4484L47.6319 53.0963ZM43.7254 57.5751C44.1209 57.8539 44.6131 58.0001 45.1167 57.9884C45.7749 57.9872 46.4238 57.8488 47.0117 57.5843C47.4898 57.4026 47.8944 57.0947 48.1712 56.7018C48.448 56.309 48.5839 55.85 48.5606 55.3862V54.0545C48.289 54.2001 47.9944 54.3085 47.6868 54.376C47.3415 54.4605 46.9899 54.5229 46.6347 54.5627L45.5142 54.6913C44.9867 54.7333 44.4723 54.8609 43.9961 55.0678C43.7207 55.2004 43.4934 55.4005 43.3411 55.6445C43.1887 55.8886 43.1175 56.1665 43.136 56.4455C43.1276 56.6632 43.178 56.8795 43.283 57.0762C43.388 57.2728 43.5444 57.4439 43.7391 57.5751H43.7254Z" fill="white"/>
<path d="M53.5228 49.2025H55.2876V50.9077C55.5411 50.4372 55.9032 50.0199 56.3499 49.6832C56.6058 49.4556 56.9095 49.2755 57.2435 49.1531C57.5775 49.0307 57.9353 48.9684 58.2963 48.9699C58.3557 48.9664 58.4152 48.9664 58.4745 48.9699L58.896 49.0066V50.7547C58.7952 50.7374 58.6934 50.7251 58.591 50.7179C58.4985 50.7179 58.3991 50.7179 58.286 50.7179C57.882 50.6964 57.4778 50.758 57.1047 50.8982C56.7316 51.0383 56.3995 51.2531 56.134 51.5261C55.6388 52.0422 55.3709 52.7016 55.3801 53.3813V59.0847H53.5228V49.2025Z" fill="white"/>
<path d="M60.8764 46.447H62.7509V49.2023H64.5156V50.5554H62.7509V56.9843C62.7325 57.1215 62.7601 57.2605 62.8303 57.3837C62.9005 57.5068 63.01 57.6086 63.1449 57.6761C63.3735 57.7569 63.6193 57.7914 63.8646 57.7772C63.9571 57.7772 64.053 57.7772 64.1558 57.7772C64.2763 57.7731 64.3965 57.7629 64.5156 57.7466V59.0844C64.2981 59.1403 64.0757 59.1802 63.8509 59.2038C63.6029 59.2292 63.3534 59.2414 63.1038 59.2405C62.238 59.2405 61.6497 59.0425 61.339 58.6466C61.0139 58.1904 60.8524 57.6563 60.8764 57.1159V50.5554H59.3789V49.2023H60.8764V46.447Z" fill="white"/>
<path d="M66.3732 49.2026H68.1345V50.6016C68.5792 50.083 69.1468 49.6586 69.7965 49.3587C70.4049 49.1028 71.0705 48.974 71.7429 48.9822C73.3124 48.9822 74.3712 49.47 74.9195 50.4455C75.2634 51.1693 75.4192 51.9532 75.3753 52.7385V59.0847H73.4871V52.8487C73.5096 52.3502 73.4077 51.8535 73.189 51.3945C73.0299 51.0964 72.7728 50.8487 72.4519 50.6846C72.131 50.5204 71.7617 50.4477 71.3934 50.4761C71.0278 50.4675 70.6628 50.5077 70.3105 50.5955C69.7841 50.742 69.318 51.0243 68.9707 51.4068C68.6831 51.6962 68.4764 52.0424 68.3675 52.417C68.2597 52.9058 68.2126 53.4038 68.2271 53.9018V59.0847H66.3732V49.2026Z" fill="white"/>
<path d="M84.9394 49.4747C85.6124 49.7593 86.1884 50.1989 86.6083 50.7482C86.9911 51.2748 87.2424 51.869 87.345 52.4902C87.4773 53.2083 87.5324 53.9362 87.5095 54.6637H79.4772C79.4628 55.5222 79.7374 56.3648 80.2653 57.0822C80.7565 57.6945 81.5172 58.0006 82.5475 58.0006C82.9786 58.0174 83.4084 57.9489 83.8065 57.8002C84.2045 57.6515 84.5609 57.4262 84.8503 57.1404C85.1712 56.8055 85.4052 56.4114 85.5357 55.9862H87.3587C87.2853 56.4127 87.1225 56.8229 86.879 57.1955C86.6428 57.6004 86.3363 57.9693 85.9709 58.2884C85.3956 58.7859 84.6765 59.1304 83.8943 59.2833C83.4012 59.3861 82.8962 59.4355 82.3899 59.4303C81.7375 59.4393 81.0904 59.3244 80.4914 59.0932C79.8923 58.8621 79.3551 58.5199 78.9152 58.0894C77.9648 57.1955 77.4896 55.9444 77.4896 54.3362C77.4896 52.7279 77.9682 51.4411 78.9254 50.4758C79.384 49.9906 79.9594 49.6042 80.6085 49.3455C81.2577 49.0868 81.9639 48.9625 82.6743 48.9818C83.4625 48.9831 84.2389 49.152 84.9394 49.4747ZM85.6042 53.3473C85.566 52.7464 85.3874 52.1593 85.0799 51.6238C84.5762 50.8248 83.7366 50.4268 82.5544 50.4268C82.1549 50.4203 81.7586 50.4905 81.392 50.6325C81.0255 50.7746 80.6974 50.9853 80.4298 51.2503C79.8463 51.8246 79.5216 52.5717 79.5183 53.3473H85.6042Z" fill="white"/>
<path d="M89.9116 49.2025H91.6764V50.9077C91.9299 50.4372 92.292 50.0199 92.7387 49.6832C93.2576 49.2246 93.9586 48.9681 94.6886 48.9699C94.7467 48.9664 94.8051 48.9664 94.8633 48.9699L95.2848 49.0066V50.7547C95.184 50.7372 95.0822 50.7249 94.9798 50.7179C94.8873 50.7179 94.7879 50.7179 94.6783 50.7179C94.2737 50.6959 93.8688 50.7573 93.4951 50.8975C93.1213 51.0376 92.7886 51.2527 92.5228 51.5261C92.0276 52.0422 91.7597 52.7016 91.7689 53.3813V59.0847H89.9116V49.2025Z" fill="white"/>
<path d="M98.0057 55.974C98.0235 56.4293 98.1877 56.8703 98.4786 57.2445C98.9549 57.7771 99.7842 58.0465 100.963 58.0465C101.608 58.0582 102.246 57.92 102.813 57.6455C103.066 57.5288 103.275 57.3501 103.417 57.1303C103.559 56.9106 103.628 56.6591 103.615 56.4056C103.62 56.207 103.563 56.011 103.45 55.84C103.337 55.669 103.172 55.5298 102.974 55.4383C102.457 55.229 101.916 55.0709 101.36 54.9668L99.863 54.6362C99.1206 54.5023 98.406 54.2658 97.7452 53.9351C97.3727 53.7533 97.0626 53.4842 96.8482 53.1569C96.6339 52.8295 96.5235 52.4561 96.5287 52.0769C96.5129 51.6467 96.6067 51.2189 96.8032 50.8258C96.9997 50.4328 97.2937 50.0849 97.663 49.8084C98.4272 49.2328 99.4518 48.942 100.747 48.942C102.433 48.942 103.65 49.3788 104.397 50.2523C104.849 50.7598 105.091 51.3914 105.082 52.0401H103.317C103.283 51.6677 103.126 51.3127 102.865 51.0207C102.431 50.5901 101.675 50.3737 100.596 50.3717C100.024 50.3371 99.4542 50.4623 98.9652 50.7299C98.7914 50.8334 98.6495 50.9743 98.5525 51.1396C98.4555 51.3048 98.4065 51.4892 98.41 51.6758C98.4131 51.8905 98.4826 52.1002 98.6108 52.2817C98.739 52.4632 98.921 52.6096 99.1365 52.7044C99.5259 52.8922 99.9438 53.0283 100.377 53.1085L101.628 53.3749C102.998 53.6627 103.896 53.9443 104.369 54.2137C105.091 54.6362 105.452 55.3025 105.452 56.2128C105.455 56.6418 105.355 57.0665 105.16 57.4586C104.965 57.8507 104.679 58.2014 104.321 58.4874C103.565 59.1262 102.415 59.4456 100.87 59.4456C99.205 59.4456 98.0297 59.1119 97.334 58.4445C96.6387 57.7697 96.2438 56.891 96.2238 55.974H98.0057Z" fill="white"/>
<path d="M4.16702 41.0958C3.76119 40.297 3.54421 39.432 3.52964 38.5549C3.50447 37.7661 3.66329 36.9812 3.99603 36.2502C4.32876 35.5192 4.82811 34.858 5.46234 34.3088C6.74853 33.1863 8.47219 32.625 10.6333 32.625C12.6894 32.625 14.2886 33.1475 15.4308 34.1924C15.9848 34.6813 16.4222 35.2654 16.7167 35.9094C17.0111 36.5534 17.1566 37.244 17.1442 37.9395C17.1708 39.5673 16.5366 41.1486 15.3589 42.3908C14.6735 43.1357 13.5084 43.9939 11.8636 44.9654L17.271 50.7392C17.6274 49.7779 17.8753 49.0636 18.0146 48.5962C18.1551 48.1217 18.2956 47.4574 18.443 46.6032H21.8903C21.668 48.2744 21.2073 49.9133 20.5196 51.48C19.8342 53.0352 19.4916 53.6617 19.4916 53.3597L24.7551 59.0845H20.0844L17.3087 56.0537C16.4302 56.9566 15.4153 57.7459 14.2931 58.3987C12.6282 59.2801 10.7213 59.7296 8.78631 59.6967C5.71592 59.6967 3.48395 58.9498 2.0904 57.4558C0.735049 56.0641 -0.00785517 54.2798 6.26434e-05 52.4352C6.26434e-05 50.4269 0.677422 48.7503 2.03214 47.4053C2.86142 46.5889 4.41032 45.5685 6.67885 44.3439C5.42465 43.0561 4.58737 41.9734 4.16702 41.0958ZM12.8916 55.9129C13.8619 55.3841 14.7023 54.6853 15.3623 53.8587L8.68694 46.5573C6.80221 47.6859 5.572 48.5513 4.9963 49.1534C4.10873 50.0668 3.63676 51.2444 3.67357 52.4535C3.67357 53.8597 4.2447 54.9414 5.38695 55.6986C6.43585 56.425 7.72307 56.823 9.05018 56.8313C10.4033 56.8647 11.738 56.5456 12.8916 55.9129ZM12.6037 40.9121C13.3576 40.1666 13.7762 39.1983 13.7791 38.1936C13.7929 37.4484 13.4849 36.727 12.919 36.1793C12.6228 35.8963 12.2613 35.6742 11.8596 35.5284C11.4578 35.3825 11.0254 35.3163 10.5922 35.3343C9.10729 35.3343 8.07926 35.7782 7.50813 36.666C7.21652 37.1205 7.06516 37.6361 7.0695 38.16C7.07685 38.904 7.31402 39.6318 7.75486 40.2631C8.41792 41.183 9.16646 42.0514 9.99254 42.8592C10.9427 42.2983 11.8187 41.6431 12.6037 40.906V40.9121Z" fill="white"/>
</g>
<path d="M1.188 76.6H2.724V82.564L7.236 76.6H8.688V85H7.152V79.048L2.64 85H1.188V76.6ZM10.9952 78.592H12.4952V81.196H15.7232V78.592H17.2232V85H15.7232V82.468H12.4952V85H10.9952V78.592ZM22.2095 85.084C21.5615 85.084 20.9775 84.944 20.4575 84.664C19.9375 84.384 19.5295 83.996 19.2335 83.5C18.9455 82.996 18.8015 82.428 18.8015 81.796C18.8015 81.164 18.9455 80.6 19.2335 80.104C19.5295 79.608 19.9375 79.22 20.4575 78.94C20.9775 78.66 21.5615 78.52 22.2095 78.52C22.8655 78.52 23.4535 78.66 23.9735 78.94C24.4935 79.22 24.8975 79.608 25.1855 80.104C25.4815 80.6 25.6295 81.164 25.6295 81.796C25.6295 82.428 25.4815 82.996 25.1855 83.5C24.8975 83.996 24.4935 84.384 23.9735 84.664C23.4535 84.944 22.8655 85.084 22.2095 85.084ZM22.2095 83.8C22.7615 83.8 23.2175 83.616 23.5775 83.248C23.9375 82.88 24.1175 82.396 24.1175 81.796C24.1175 81.196 23.9375 80.712 23.5775 80.344C23.2175 79.976 22.7615 79.792 22.2095 79.792C21.6575 79.792 21.2015 79.976 20.8415 80.344C20.4895 80.712 20.3135 81.196 20.3135 81.796C20.3135 82.396 20.4895 82.88 20.8415 83.248C21.2015 83.616 21.6575 83.8 22.2095 83.8ZM27.2313 78.592H28.7313V82.816L32.2713 78.592H33.6393V85H32.1393V80.776L28.6113 85H27.2313V78.592ZM30.3393 77.836C29.6913 77.836 29.1953 77.688 28.8513 77.392C28.5153 77.088 28.3433 76.648 28.3353 76.072H29.3313C29.3393 76.36 29.4273 76.588 29.5953 76.756C29.7713 76.924 30.0153 77.008 30.3273 77.008C30.6313 77.008 30.8713 76.924 31.0473 76.756C31.2313 76.588 31.3273 76.36 31.3353 76.072H32.3553C32.3473 76.648 32.1713 77.088 31.8273 77.392C31.4833 77.688 30.9873 77.836 30.3393 77.836ZM45.3575 78.592V85H43.8695V79.864H40.7135V85H39.2135V78.592H45.3575ZM50.3574 85.084C49.7094 85.084 49.1254 84.944 48.6054 84.664C48.0854 84.384 47.6774 83.996 47.3814 83.5C47.0934 82.996 46.9494 82.428 46.9494 81.796C46.9494 81.164 47.0934 80.6 47.3814 80.104C47.6774 79.608 48.0854 79.22 48.6054 78.94C49.1254 78.66 49.7094 78.52 50.3574 78.52C51.0134 78.52 51.6014 78.66 52.1214 78.94C52.6414 79.22 53.0454 79.608 53.3334 80.104C53.6294 80.6 53.7774 81.164 53.7774 81.796C53.7774 82.428 53.6294 82.996 53.3334 83.5C53.0454 83.996 52.6414 84.384 52.1214 84.664C51.6014 84.944 51.0134 85.084 50.3574 85.084ZM50.3574 83.8C50.9094 83.8 51.3654 83.616 51.7254 83.248C52.0854 82.88 52.2654 82.396 52.2654 81.796C52.2654 81.196 52.0854 80.712 51.7254 80.344C51.3654 79.976 50.9094 79.792 50.3574 79.792C49.8054 79.792 49.3494 79.976 48.9894 80.344C48.6374 80.712 48.4614 81.196 48.4614 81.796C48.4614 82.396 48.6374 82.88 48.9894 83.248C49.3494 83.616 49.8054 83.8 50.3574 83.8ZM62.1489 83.728V86.428H60.7449V85H55.8009V86.428H54.4089V83.728H54.7089C55.1169 83.712 55.3929 83.452 55.5369 82.948C55.6889 82.436 55.7889 81.716 55.8369 80.788L55.9209 78.592H61.2009V83.728H62.1489ZM57.2049 80.896C57.1729 81.632 57.1129 82.232 57.0249 82.696C56.9369 83.16 56.7769 83.504 56.5449 83.728H59.7009V79.864H57.2409L57.2049 80.896ZM67.6166 85L65.9726 82.78L64.3166 85H62.6606L65.1566 81.748L62.7686 78.592H64.4366L66.0086 80.692L67.5806 78.592H69.2006L66.8006 81.724L69.3086 85H67.6166ZM73.1471 85.084C72.4991 85.084 71.9151 84.944 71.3951 84.664C70.8751 84.384 70.4671 83.996 70.1711 83.5C69.8831 82.996 69.7391 82.428 69.7391 81.796C69.7391 81.164 69.8831 80.6 70.1711 80.104C70.4671 79.608 70.8751 79.22 71.3951 78.94C71.9151 78.66 72.4991 78.52 73.1471 78.52C73.8031 78.52 74.3911 78.66 74.9111 78.94C75.4311 79.22 75.8351 79.608 76.1231 80.104C76.4191 80.6 76.5671 81.164 76.5671 81.796C76.5671 82.428 76.4191 82.996 76.1231 83.5C75.8351 83.996 75.4311 84.384 74.9111 84.664C74.3911 84.944 73.8031 85.084 73.1471 85.084ZM73.1471 83.8C73.6991 83.8 74.1551 83.616 74.5151 83.248C74.8751 82.88 75.0551 82.396 75.0551 81.796C75.0551 81.196 74.8751 80.712 74.5151 80.344C74.1551 79.976 73.6991 79.792 73.1471 79.792C72.5951 79.792 72.1391 79.976 71.7791 80.344C71.4271 80.712 71.2511 81.196 71.2511 81.796C71.2511 82.396 71.4271 82.88 71.7791 83.248C72.1391 83.616 72.5951 83.8 73.1471 83.8ZM84.9386 83.728V86.428H83.5346V85H78.5906V86.428H77.1986V83.728H77.4986C77.9066 83.712 78.1826 83.452 78.3266 82.948C78.4786 82.436 78.5786 81.716 78.6266 80.788L78.7106 78.592H83.9906V83.728H84.9386ZM79.9946 80.896C79.9626 81.632 79.9026 82.232 79.8146 82.696C79.7266 83.16 79.5666 83.504 79.3346 83.728H82.4906V79.864H80.0306L79.9946 80.896ZM92.4987 82.432H91.3347V85H89.8347V78.592H91.3347V81.184H92.5347L94.4307 78.592H96.0387L93.7107 81.676L96.1947 85H94.4307L92.4987 82.432ZM107.649 83.728V86.428H106.245V85H101.301V86.428H99.9091V83.728H100.209C100.617 83.712 100.893 83.452 101.037 82.948C101.189 82.436 101.289 81.716 101.337 80.788L101.421 78.592H106.701V83.728H107.649ZM102.705 80.896C102.673 81.632 102.613 82.232 102.525 82.696C102.437 83.16 102.277 83.504 102.045 83.728H105.201V79.864H102.741L102.705 80.896ZM115.109 81.832C115.109 81.936 115.101 82.084 115.085 82.276H110.057C110.145 82.748 110.373 83.124 110.741 83.404C111.117 83.676 111.581 83.812 112.133 83.812C112.837 83.812 113.417 83.58 113.873 83.116L114.677 84.04C114.389 84.384 114.025 84.644 113.585 84.82C113.145 84.996 112.649 85.084 112.097 85.084C111.393 85.084 110.773 84.944 110.237 84.664C109.701 84.384 109.285 83.996 108.989 83.5C108.701 82.996 108.557 82.428 108.557 81.796C108.557 81.172 108.697 80.612 108.977 80.116C109.265 79.612 109.661 79.22 110.165 78.94C110.669 78.66 111.237 78.52 111.869 78.52C112.493 78.52 113.049 78.66 113.537 78.94C114.033 79.212 114.417 79.6 114.689 80.104C114.969 80.6 115.109 81.176 115.109 81.832ZM111.869 79.72C111.389 79.72 110.981 79.864 110.645 80.152C110.317 80.432 110.117 80.808 110.045 81.28H113.681C113.617 80.816 113.421 80.44 113.093 80.152C112.765 79.864 112.357 79.72 111.869 79.72ZM122.595 78.592V85H121.095V79.864H118.695L118.635 81.136C118.595 81.984 118.515 82.696 118.395 83.272C118.283 83.84 118.087 84.292 117.807 84.628C117.535 84.956 117.159 85.12 116.679 85.12C116.455 85.12 116.179 85.076 115.851 84.988L115.923 83.728C116.035 83.752 116.131 83.764 116.211 83.764C116.515 83.764 116.743 83.644 116.895 83.404C117.047 83.156 117.143 82.864 117.183 82.528C117.231 82.184 117.271 81.696 117.303 81.064L117.411 78.592H122.595ZM130.784 78.592L127.784 85.516C127.504 86.212 127.164 86.7 126.764 86.98C126.364 87.268 125.88 87.412 125.312 87.412C124.992 87.412 124.676 87.36 124.364 87.256C124.052 87.152 123.796 87.008 123.596 86.824L124.196 85.72C124.34 85.856 124.508 85.964 124.7 86.044C124.9 86.124 125.1 86.164 125.3 86.164C125.564 86.164 125.78 86.096 125.948 85.96C126.124 85.824 126.284 85.596 126.428 85.276L126.536 85.024L123.74 78.592H125.3L127.316 83.332L129.344 78.592H130.784Z" fill="white"/>
<defs>
<clipPath id="clip0">
<rect width="133" height="63" fill="white"/>
</clipPath>
</defs>
</svg>
