<svg width="15" height="15" viewBox="0 0 15 15" fill="none" xmlns="http://www.w3.org/2000/svg">
<path d="M5.85375 6.67625C6.44021 7.70655 7.29345 8.55979 8.32375 9.14625L8.87625 8.3725C8.9651 8.24808 9.09647 8.16055 9.2455 8.12646C9.39454 8.09237 9.5509 8.11408 9.685 8.1875C10.569 8.67058 11.5451 8.96111 12.5494 9.04C12.7061 9.05242 12.8524 9.12346 12.9591 9.23895C13.0658 9.35444 13.125 9.5059 13.125 9.66313V12.4519C13.125 12.6066 13.0677 12.7559 12.964 12.8708C12.8603 12.9856 12.7177 13.058 12.5637 13.0737C12.2325 13.1081 11.8988 13.125 11.5625 13.125C6.2125 13.125 1.875 8.7875 1.875 3.4375C1.875 3.10125 1.89188 2.7675 1.92625 2.43625C1.94203 2.28231 2.01437 2.1397 2.12924 2.03602C2.24412 1.93234 2.39338 1.87497 2.54813 1.875H5.33687C5.4941 1.87498 5.64556 1.93422 5.76105 2.04091C5.87654 2.14759 5.94758 2.29389 5.96 2.45063C6.03889 3.45487 6.32942 4.43105 6.8125 5.315C6.88592 5.4491 6.90763 5.60546 6.87354 5.7545C6.83945 5.90353 6.75192 6.0349 6.6275 6.12375L5.85375 6.67625ZM4.2775 6.26562L5.465 5.4175C5.12799 4.69006 4.89709 3.91803 4.77937 3.125H3.13125C3.1275 3.22875 3.12562 3.33312 3.12562 3.4375C3.125 8.0975 6.9025 11.875 11.5625 11.875C11.6669 11.875 11.7712 11.8731 11.875 11.8687V10.2206C11.082 10.1029 10.3099 9.87201 9.5825 9.535L8.73438 10.7225C8.39291 10.5898 8.06125 10.4332 7.74188 10.2537L7.70563 10.2331C6.47974 9.53545 5.46455 8.52026 4.76687 7.29437L4.74625 7.25812C4.56682 6.93875 4.41018 6.60709 4.2775 6.26562Z" fill="#76324D"/>
</svg>
