<svg width="30" height="30" viewBox="0 0 30 30" fill="none" xmlns="http://www.w3.org/2000/svg">
<g clip-path="url(#clip0)">
<path d="M6.9498 18.498H0.878496C0.39334 18.498 0 18.8914 0 19.3766V29.081C0 29.5662 0.39334 29.9595 0.878496 29.9595H6.9498C7.43496 29.9595 7.8283 29.5662 7.8283 29.081V19.3766C7.8283 18.8914 7.43496 18.498 6.9498 18.498Z" fill="#76324D"/>
<path d="M17.0664 14.105H10.9951C10.51 14.105 10.1166 14.4983 10.1166 14.9835V29.081C10.1166 29.5662 10.51 29.9595 10.9951 29.9595H17.0664C17.5516 29.9595 17.9449 29.5662 17.9449 29.081V14.9835C17.9449 14.4983 17.5516 14.105 17.0664 14.105Z" fill="#76324D"/>
<path d="M29.4082 2.61085L25.0806 1.11688V0.918779C25.0806 0.433623 24.6872 0.0402832 24.2021 0.0402832C23.7169 0.0402832 23.3236 0.433623 23.3236 0.918779V9.12853H21.1664C20.6812 9.12853 20.2879 9.52186 20.2879 10.007V29.081C20.2879 29.5662 20.6812 29.9595 21.1664 29.9595H27.2377C27.7229 29.9595 28.1162 29.5662 28.1162 29.081V10.007C28.1162 9.52186 27.7229 9.12853 27.2377 9.12853H25.0806V6.09712L29.4626 4.25083C29.7981 4.1095 30.0116 3.77593 29.9995 3.41212C29.9875 3.04831 29.7523 2.72962 29.4082 2.61085Z" fill="#76324D"/>
</g>
<defs>
<clipPath id="clip0">
<rect width="30" height="30" fill="white"/>
</clipPath>
</defs>
</svg>
