<svg width="30" height="30" viewBox="0 0 30 30" fill="none" xmlns="http://www.w3.org/2000/svg">
<path d="M20.1562 23.4375C20.4151 23.4375 20.625 23.2276 20.625 22.9688C20.625 22.7099 20.4151 22.5 20.1562 22.5C19.8974 22.5 19.6875 22.7099 19.6875 22.9688C19.6875 23.2276 19.8974 23.4375 20.1562 23.4375Z" fill="#76324D"/>
<path d="M6.76779 14.1094L7.93123 12.6562H4.25623L5.41966 14.1094C5.55277 14.2758 5.62518 14.4827 5.62498 14.6958V15.3052C5.62497 15.518 5.55257 15.7244 5.41966 15.8906L4.25623 17.3438H7.93123L6.76779 15.8906C6.63459 15.7241 6.56216 15.517 6.56248 15.3037V14.6944C6.56259 14.4817 6.63499 14.2754 6.76779 14.1094Z" fill="#76324D"/>
<path d="M22.9688 18.75C23.2276 18.75 23.4375 18.5401 23.4375 18.2812C23.4375 18.0224 23.2276 17.8125 22.9688 17.8125C22.7099 17.8125 22.5 18.0224 22.5 18.2812C22.5 18.5401 22.7099 18.75 22.9688 18.75Z" fill="#76324D"/>
<path d="M8.90672 10.7812H3.28125V11.7188H8.90672V10.7812Z" fill="#76324D"/>
<path d="M8.90672 18.2812H3.28125V19.2188H8.90672V18.2812Z" fill="#76324D"/>
<path d="M15 20.625C15.2589 20.625 15.4688 20.4151 15.4688 20.1562C15.4688 19.8974 15.2589 19.6875 15 19.6875C14.7411 19.6875 14.5312 19.8974 14.5312 20.1562C14.5312 20.4151 14.7411 20.625 15 20.625Z" fill="#76324D"/>
<path d="M10.7812 24.375C11.0401 24.375 11.25 24.1651 11.25 23.9062C11.25 23.6474 11.0401 23.4375 10.7812 23.4375C10.5224 23.4375 10.3125 23.6474 10.3125 23.9062C10.3125 24.1651 10.5224 24.375 10.7812 24.375Z" fill="#76324D"/>
<path d="M24.375 5.625C24.0024 5.62389 23.6453 5.47537 23.3819 5.21189C23.1184 4.94841 22.9699 4.59137 22.9688 4.21875V1.875H8.4375C8.06488 1.87611 7.70784 2.02463 7.44436 2.28811C7.18088 2.55159 7.03236 2.90863 7.03125 3.28125V9.84375H8.90625C9.15466 9.84449 9.39269 9.9435 9.56834 10.1192C9.744 10.2948 9.84301 10.5328 9.84375 10.7812V11.7188C9.84244 11.9214 9.77551 12.1182 9.65297 12.2796C9.53044 12.441 9.3589 12.5583 9.16406 12.6141L7.5 14.6953V15.3047L9.16406 17.3859C9.3589 17.4417 9.53044 17.559 9.65297 17.7204C9.77551 17.8818 9.84244 18.0786 9.84375 18.2812V19.2188C9.84301 19.4672 9.744 19.7052 9.56834 19.8808C9.39269 20.0565 9.15466 20.1555 8.90625 20.1562H7.03125V26.7188C7.03236 27.0914 7.18088 27.4484 7.44436 27.7119C7.70784 27.9754 8.06488 28.1239 8.4375 28.125H25.3125C25.6851 28.1239 26.0422 27.9754 26.3056 27.7119C26.5691 27.4484 26.7176 27.0914 26.7188 26.7188V5.625H24.375ZM10.7812 14.0625V13.125H18.2812V14.0625H10.7812ZM18.2812 15V15.9375H10.7812V15H18.2812ZM10.7812 12.1875V11.25H18.2812V12.1875H10.7812ZM10.7812 10.3125V9.375H18.2812V10.3125H10.7812ZM10.7812 3.75H13.5938V4.6875H10.7812V3.75ZM8.90625 3.75H9.84375V4.6875H8.90625V3.75ZM8.90625 6.5625V5.625H13.5938V6.5625H8.90625ZM22.9688 19.6875C22.8743 19.6879 22.78 19.6785 22.6875 19.6594L21.2391 22.0781C21.3832 22.2521 21.4834 22.4583 21.531 22.6792C21.5785 22.9002 21.5722 23.1293 21.5124 23.3472C21.4527 23.5652 21.3413 23.7655 21.1877 23.9312C21.0341 24.097 20.8428 24.2233 20.63 24.2994C20.4172 24.3755 20.1892 24.3993 19.9654 24.3686C19.7415 24.3379 19.5283 24.2537 19.3438 24.1232C19.1594 23.9926 19.0091 23.8195 18.9057 23.6186C18.8024 23.4176 18.7489 23.1947 18.75 22.9688C18.7506 22.8947 18.7584 22.8209 18.7734 22.7484L15.9328 21.2016C15.6769 21.4325 15.3448 21.5611 15 21.5625C14.7631 21.5603 14.5307 21.4974 14.325 21.3797L12.0844 23.3766C12.1979 23.6557 12.2187 23.9638 12.1439 24.2556C12.069 24.5475 11.9024 24.8076 11.6686 24.9976C11.4348 25.1876 11.1461 25.2975 10.8452 25.3111C10.5442 25.3247 10.2468 25.2412 9.99681 25.0731C9.74683 24.9049 9.55746 24.6609 9.45659 24.377C9.35573 24.0931 9.34871 23.7844 9.43657 23.4962C9.52442 23.208 9.70251 22.9556 9.9446 22.7763C10.1867 22.5969 10.48 22.5001 10.7812 22.5C11.0182 22.5022 11.2506 22.5651 11.4563 22.6828L13.6969 20.6859C13.6189 20.4937 13.5844 20.2866 13.5959 20.0795C13.6074 19.8723 13.6646 19.6703 13.7633 19.4879C13.8621 19.3054 14 19.1471 14.1672 19.0243C14.3343 18.9014 14.5266 18.817 14.7302 18.7772C14.9338 18.7374 15.1437 18.7432 15.3448 18.794C15.5459 18.8449 15.7333 18.9396 15.8935 19.0714C16.0537 19.2032 16.1827 19.3688 16.2714 19.5564C16.36 19.744 16.4061 19.9488 16.4062 20.1562C16.4057 20.2303 16.3978 20.3041 16.3828 20.3766L19.2234 21.9234C19.4794 21.6925 19.8115 21.5639 20.1562 21.5625C20.2507 21.5621 20.345 21.5715 20.4375 21.5906L21.8859 19.1719C21.6845 18.9251 21.5731 18.6171 21.57 18.2985C21.5669 17.98 21.6724 17.6699 21.8691 17.4192C22.0657 17.1686 22.3418 16.9924 22.652 16.9196C22.9621 16.8468 23.2878 16.8818 23.5754 17.0187C23.863 17.1557 24.0955 17.3865 24.2344 17.6732C24.3734 17.9598 24.4107 18.2852 24.34 18.5959C24.2694 18.9065 24.0952 19.1839 23.8459 19.3823C23.5967 19.5807 23.2873 19.6883 22.9688 19.6875ZM24.8438 15.9375H19.2188V15H24.8438V15.9375ZM24.8438 14.0625H19.2188V13.125H24.8438V14.0625ZM24.8438 12.1875H19.2188V11.25H24.8438V12.1875ZM24.8438 10.3125H19.2188V9.375H24.8438V10.3125Z" fill="#76324D"/>
<path d="M24.375 4.68753H26.0559L23.9062 2.53784V4.21878C23.9062 4.3431 23.9556 4.46233 24.0435 4.55024C24.1315 4.63814 24.2507 4.68753 24.375 4.68753Z" fill="#76324D"/>
</svg>
