<svg width="30" height="30" viewBox="0 0 30 30" fill="none" xmlns="http://www.w3.org/2000/svg">
<g clip-path="url(#clip0)">
<path d="M23.0508 11.4866H22.2636V0H19.5268V11.1037H18.3268V0H15.5896V11.1037H14.3881V0H11.6517V11.1037H10.4509V0H7.71447V11.4866H6.94654C6.52435 11.4866 6.18042 11.8305 6.18042 12.2538C6.18042 12.6773 6.52435 13.0207 6.94654 13.0207H9.3616C9.57189 13.2521 9.86874 13.4036 10.2062 13.4036H13.9261C13.8819 13.5269 13.849 13.6553 13.849 13.7855C13.849 14.0919 13.9715 14.3841 14.187 14.5984C14.2868 14.6983 14.4072 14.7728 14.5344 14.8296C14.3445 14.9627 14.1656 15.173 14.0128 15.4759L13.4593 16.5833L12.4274 15.9023C11.4129 15.2332 10.6448 15.6765 10.7176 16.8893L10.7914 18.1229L9.55692 18.0499C8.34605 17.9768 7.90131 18.7455 8.56951 19.7592L9.25123 20.7916L8.14352 21.3441C7.05836 21.887 7.05836 22.775 8.14352 23.3179L9.25123 23.8703L8.56951 24.9026C7.90131 25.9162 8.34479 26.6852 9.55692 26.6129L10.7914 26.5378L10.7176 27.7725C10.6457 28.9843 11.4129 29.4287 12.4274 28.7603L13.4593 28.0789L14.0128 29.1857C14.5558 30.2716 15.4441 30.2716 15.9865 29.1857L16.5406 28.0789L17.5724 28.7603C18.587 29.4287 19.3549 28.9843 19.284 27.7725L19.209 26.5378L20.4437 26.6129C21.6546 26.685 22.0984 25.9162 21.4313 24.9026L20.7494 23.8703L21.8558 23.3179C22.9414 22.7749 22.9414 21.8868 21.8558 21.3441L20.7494 20.7916L21.4313 19.7592C22.0984 18.7457 21.6564 17.9768 20.4437 18.0499L19.209 18.1229L19.284 16.8893C19.3538 15.6765 18.587 15.2332 17.5724 15.9023L16.5406 16.5833L15.9865 15.4759C15.8361 15.1739 15.6563 14.9647 15.4659 14.8303C15.5936 14.7726 15.7126 14.6981 15.8129 14.5982C16.0271 14.3839 16.1505 14.0927 16.1505 13.7853C16.1505 13.6551 16.1178 13.5267 16.0733 13.4034H19.7928C20.1304 13.4034 20.4284 13.2519 20.6381 13.0205H23.0541C23.4761 13.0205 23.8195 12.6771 23.8195 12.2536C23.8166 11.8307 23.4736 11.4866 23.0508 11.4866ZM19.9825 22.3308C19.9825 25.0844 17.7516 27.3168 14.9975 27.3168C12.2434 27.3168 10.0121 25.0844 10.0121 22.3308C10.0121 19.5774 12.2436 17.3463 14.9975 17.3463C17.7514 17.3463 19.9825 19.5785 19.9825 22.3308Z" fill="#76324D"/>
<path d="M13.9345 21.2138L11.5608 21.5602L13.2783 23.2349L12.8732 25.6004L14.9977 24.4833L17.1217 25.6004L16.7161 23.2349L18.4346 21.5602L16.0603 21.2138L14.9977 19.0627L13.9345 21.2138Z" fill="#76324D"/>
</g>
<defs>
<clipPath id="clip0">
<rect width="30" height="30" fill="white"/>
</clipPath>
</defs>
</svg>
